<!-- icon666.com - MILLIONS vector ICONS FREE --><svg id="Capa_1" enable-background="new 0 0 512.39 512.39" viewBox="0 0 512.39 512.39" xmlns="http://www.w3.org/2000/svg"><g><path d="m167.253 133.411 29.697 52.394v12.865c-4.004 2.768-6.636 7.385-6.636 12.609v15.284c0 8.45 6.875 15.324 15.324 15.324h1.558c1.047 17.976 15.997 32.281 34.231 32.281s33.184-14.305 34.231-32.281h1.557c8.45 0 15.324-6.875 15.324-15.324v-15.284c0-5.225-2.632-9.842-6.636-12.609v-12.863l29.697-52.396c.055-.096.106-.192.156-.29 6.005-10.975 9.433-22.889 10.188-35.415.25-4.135-2.9-7.688-7.034-7.938-4.141-.242-7.688 2.9-7.938 7.035-.626 10.368-3.476 20.224-8.47 29.292-.021.04-.043.079-.064.119l-29.718 52.432c-1.188 2.097-1.817 4.479-1.817 6.89v10.42h-21.977v-58.949l38.13-37.631c2.205-2.176 3.425-5.082 3.435-8.18s-1.191-6.01-3.382-8.199l-13.661-13.661c-2.18-2.181-5.079-3.382-8.163-3.382-3.083 0-5.982 1.201-8.164 3.381l-2.567 2.567-6.442-4.575c-3.998-2.84-9.371-2.84-13.37 0l-6.443 4.576-2.567-2.566c-2.181-2.181-5.08-3.382-8.164-3.382-3.083 0-5.982 1.201-8.163 3.381l-13.661 13.661c-2.191 2.19-3.392 5.103-3.382 8.201s1.23 6.003 3.436 8.179l38.129 37.63v58.95h-21.977v-10.42c0-2.41-.627-4.792-1.816-6.889l-29.727-52.448c-.019-.035-.037-.07-.056-.105-5.626-10.216-8.6-21.819-8.6-33.554 0-18.699 7.307-36.255 20.573-49.434 13.153-13.066 30.572-20.243 49.101-20.243.158 0 .32 0 .479.002 28.497.19 54.489 18.312 64.678 45.093 1.473 3.872 5.804 5.815 9.677 4.343 3.871-1.473 5.815-5.805 4.343-9.677-12.374-32.522-43.96-54.528-78.598-54.759-.194-.001-.387-.002-.581-.002-22.515 0-43.686 8.724-59.669 24.601-16.123 16.016-25.002 37.351-25.002 60.076 0 14.184 3.579 28.215 10.353 40.593.046.093.096.186.148.277zm41.558-42.268 8.758-8.759 2.189 2.188c3.996 3.997 10.241 4.521 14.848 1.249l6.822-4.845 6.822 4.845c4.607 3.273 10.853 2.749 14.849-1.249l2.188-2.188 8.759 8.759-32.617 32.19zm32.616 168.025c-9.959 0-18.18-7.584-19.19-17.281h38.381c-1.01 9.697-9.231 17.281-19.191 17.281zm36.113-32.605c0 .179-.146.324-.324.324h-71.577c-.179 0-.324-.146-.324-.324v-15.284c0-.179.146-.324.324-.324h71.577c.179 0 .324.146.324.324z" fill="#000000" style="fill: rgb(48, 46, 48);"></path><path d="m338.995 43.582c1.265 0 2.547-.321 3.724-.995l8.82-5.057c3.593-2.06 4.836-6.643 2.776-10.236-2.06-3.594-6.642-4.837-10.237-2.776l-8.82 5.057c-3.593 2.06-4.836 6.643-2.776 10.236 1.385 2.417 3.914 3.771 6.513 3.771z" fill="#000000" style="fill: rgb(48, 46, 48);"></path><path d="m338.944 99.79c-1.646 3.8.099 8.217 3.899 9.864l10.489 4.545c.972.421 1.983.62 2.979.62 2.898 0 5.659-1.691 6.886-4.52 1.646-3.8-.099-8.217-3.899-9.864l-10.489-4.545c-3.802-1.647-8.217.1-9.865 3.9z" fill="#000000" style="fill: rgb(48, 46, 48);"></path><path d="m132.368 37.531 8.821 5.057c1.176.674 2.458.995 3.723.995 2.6 0 5.128-1.354 6.514-3.771 2.06-3.593.817-8.177-2.777-10.237l-8.821-5.057c-3.593-2.059-8.176-.817-10.237 2.777-2.06 3.592-.817 8.176 2.777 10.236z" fill="#000000" style="fill: rgb(48, 46, 48);"></path><path d="m127.596 114.819c.995 0 2.007-.199 2.978-.62l10.489-4.545c3.801-1.647 5.547-6.063 3.9-9.864s-6.063-5.547-9.864-3.9l-10.489 4.545c-3.801 1.647-5.547 6.063-3.9 9.864 1.226 2.829 3.987 4.52 6.886 4.52z" fill="#000000" style="fill: rgb(48, 46, 48);"></path><path d="m321.985 154.544c0 4.142 3.357 7.5 7.5 7.5h128.67v173.098c0 4.142 3.357 7.5 7.5 7.5s7.5-3.358 7.5-7.5v-173.891c0-7.833-6.373-14.207-14.206-14.207h-129.464c-4.142 0-7.5 3.358-7.5 7.5z" fill="#000000" style="fill: rgb(48, 46, 48);"></path><path d="m465.655 450.867c-4.143 0-7.5 3.358-7.5 7.5v31.159h-396.298c-24.855 0-45.405-19.418-46.784-44.207-.71-12.763 3.807-24.98 12.718-34.4 9.081-9.601 21.871-15.107 35.089-15.107h7.721c6.494 0 11.778-5.284 11.778-11.778v-152.638c0-4.142-3.358-7.5-7.5-7.5s-7.5 3.358-7.5 7.5v149.416h-4.499c-17.323 0-34.084 7.216-45.987 19.799-.651.688-1.278 1.393-1.894 2.104v-224.003c0-25.92 21.088-47.008 47.008-47.008h5.371v67.73c0 4.142 3.358 7.5 7.5 7.5s7.5-3.358 7.5-7.5v-37.39h70.989c4.142 0 7.5-3.358 7.5-7.5s-3.358-7.5-7.5-7.5h-70.988v-18.563c0-6.494-5.284-11.778-11.778-11.778h-8.593c-34.191.001-62.008 27.818-62.008 62.009 0 0 .034 266.31.097 267.44 1.82 32.733 28.949 58.374 61.76 58.374h397.092c7.833 0 14.206-6.373 14.206-14.207v-31.952c0-4.142-3.357-7.5-7.5-7.5z" fill="#000000" style="fill: rgb(48, 46, 48);"></path><path d="m485.077 357.643h-314.633c-1.259 0-2.499.317-3.603.922l-52.096 28.534c-3.529 1.933-5.721 5.633-5.721 9.657 0 4.023 2.192 7.724 5.722 9.657l52.096 28.533c1.104.605 2.343.922 3.603.922h44.188c4.142 0 7.5-3.358 7.5-7.5s-3.358-7.5-7.5-7.5h-36.688v-48.225h228.805v48.225h-160.155c-4.142 0-7.5 3.358-7.5 7.5s3.358 7.5 7.5 7.5h238.482c15.061 0 27.313-12.252 27.313-27.313v-23.6c0-15.06-12.252-27.312-27.313-27.312zm-322.133 20.159v37.906l-34.605-18.953zm258.805-5.159h17.205v48.225h-17.205zm75.641 35.912c0 6.789-5.523 12.313-12.313 12.313h-31.123v-48.225h31.123c6.789 0 12.313 5.523 12.313 12.313z" fill="#000000" style="fill: rgb(48, 46, 48);"></path><path d="m383.384 303.115h-231.697c-23.524 0-42.663 19.138-42.663 42.663v7.712c0 4.142 3.358 7.5 7.5 7.5s7.5-3.358 7.5-7.5v-7.712c0-15.253 12.409-27.663 27.663-27.663h231.697c22.269 0 40.386-18.117 40.386-40.386s-18.117-40.386-40.386-40.386h-72.677c-4.143 0-7.5 3.358-7.5 7.5s3.357 7.5 7.5 7.5h72.677c13.998 0 25.386 11.388 25.386 25.386s-11.388 25.386-25.386 25.386z" fill="#000000" style="fill: rgb(48, 46, 48);"></path></g></svg>