<svg xmlns="http://www.w3.org/2000/svg" xmlns:xlink="http://www.w3.org/1999/xlink" width="240" zoomAndPan="magnify" viewBox="0 0 180 127.500001" height="170" preserveAspectRatio="xMidYMid meet" version="1.0"><defs><g/></defs><g fill="#000000" fill-opacity="1"><g transform="translate(33.56089, 61.118152)"><g><path d="M 112.453125 -21.984375 C 111.640625 -21.910156 110.816406 -21.84375 109.984375 -21.78125 C 109.222656 -21.695312 108.457031 -21.625 107.6875 -21.5625 C 102.144531 -20.988281 96.628906 -20.242188 91.140625 -19.328125 C 84.828125 -18.335938 78.523438 -17.144531 72.234375 -15.75 C 71.140625 -15.507812 70.125 -15.070312 69.1875 -14.4375 C 61.695312 -9.4375 53.96875 -4.941406 46 -0.953125 C 38.03125 3.035156 29.851562 6.601562 21.46875 9.75 C 17.8125 11.1875 14.085938 12.394531 10.296875 13.375 C 8.546875 13.832031 6.765625 14.117188 4.953125 14.234375 C 4.710938 14.253906 4.472656 14.265625 4.234375 14.265625 C 3.421875 14.296875 2.644531 14.164062 1.90625 13.875 C 0.75 13.375 0.398438 12.539062 0.859375 11.375 C 1.222656 10.53125 1.75 9.789062 2.4375 9.15625 C 3.800781 7.820312 5.304688 6.675781 6.953125 5.71875 C 11.015625 3.332031 15.21875 1.222656 19.5625 -0.609375 C 23.863281 -2.460938 28.222656 -4.164062 32.640625 -5.71875 C 32.765625 -5.738281 32.875 -5.773438 32.96875 -5.828125 C 33.113281 -5.890625 33.269531 -5.953125 33.4375 -6.015625 C 34.082031 -6.191406 34.515625 -6.617188 34.734375 -7.296875 C 35.109375 -8.296875 35.503906 -9.289062 35.921875 -10.28125 C 35.984375 -10.4375 36.050781 -10.613281 36.125 -10.8125 C 37.03125 -13.050781 37.945312 -15.304688 38.875 -17.578125 C 40.625 -21.859375 42.367188 -26.144531 44.109375 -30.4375 C 45.265625 -33.144531 46.1875 -35.929688 46.875 -38.796875 C 46.914062 -39.054688 47 -39.316406 47.125 -39.578125 C 47.34375 -39.890625 47.628906 -40 47.984375 -39.90625 C 48.128906 -39.945312 48.285156 -39.945312 48.453125 -39.90625 C 48.597656 -39.882812 48.71875 -39.820312 48.8125 -39.71875 C 48.90625 -39.625 48.953125 -39.507812 48.953125 -39.375 C 48.984375 -38.9375 48.957031 -38.515625 48.875 -38.109375 C 48.351562 -35.585938 47.578125 -33.128906 46.546875 -30.734375 C 44.773438 -26.429688 42.992188 -22.117188 41.203125 -17.796875 C 40.492188 -16.035156 39.769531 -14.269531 39.03125 -12.5 C 38.882812 -12.15625 38.742188 -11.816406 38.609375 -11.484375 C 38.171875 -10.410156 37.722656 -9.320312 37.265625 -8.21875 C 37.242188 -8.175781 37.234375 -8.144531 37.234375 -8.125 C 37.160156 -8.007812 37.117188 -7.894531 37.109375 -7.78125 C 37.097656 -7.675781 37.148438 -7.570312 37.265625 -7.46875 C 37.285156 -7.445312 37.320312 -7.425781 37.375 -7.40625 C 37.425781 -7.425781 37.488281 -7.445312 37.5625 -7.46875 C 37.582031 -7.46875 37.601562 -7.46875 37.625 -7.46875 C 38.757812 -7.832031 39.875 -8.191406 40.96875 -8.546875 C 42.914062 -9.191406 44.859375 -9.828125 46.796875 -10.453125 C 53.679688 -12.578125 60.625 -14.429688 67.625 -16.015625 C 68.46875 -16.191406 69.226562 -16.519531 69.90625 -17 C 71.894531 -18.414062 73.847656 -19.863281 75.765625 -21.34375 C 77.691406 -22.820312 79.539062 -24.390625 81.3125 -26.046875 C 83.25 -27.785156 85.003906 -29.707031 86.578125 -31.8125 C 87.503906 -33.03125 88.207031 -34.375 88.6875 -35.84375 C 89.34375 -38.113281 88.925781 -40.113281 87.4375 -41.84375 C 86.894531 -42.488281 86.28125 -43.035156 85.59375 -43.484375 C 84.914062 -43.941406 84.195312 -44.34375 83.4375 -44.6875 C 80.820312 -45.800781 78.101562 -46.515625 75.28125 -46.828125 C 72.832031 -47.128906 70.375 -47.28125 67.90625 -47.28125 C 65.65625 -47.28125 63.414062 -47.191406 61.1875 -47.015625 C 55.414062 -46.554688 49.710938 -45.679688 44.078125 -44.390625 C 40.234375 -43.546875 36.460938 -42.503906 32.765625 -41.265625 C 29.078125 -40.023438 25.488281 -38.457031 22 -36.5625 C 20.707031 -35.90625 19.457031 -35.179688 18.25 -34.390625 C 17.050781 -33.609375 15.90625 -32.75 14.8125 -31.8125 C 13.96875 -31.039062 13.191406 -30.226562 12.484375 -29.375 C 11.941406 -28.789062 11.554688 -28.117188 11.328125 -27.359375 C 10.941406 -26.191406 11.195312 -25.191406 12.09375 -24.359375 C 12.632812 -23.828125 13.257812 -23.429688 13.96875 -23.171875 C 15.1875 -22.660156 16.453125 -22.363281 17.765625 -22.28125 C 18.460938 -22.226562 19.171875 -22.191406 19.890625 -22.171875 C 20.847656 -22.128906 21.800781 -22.078125 22.75 -22.015625 C 23.519531 -21.972656 24.273438 -21.90625 25.015625 -21.8125 C 25.117188 -21.789062 25.203125 -21.742188 25.265625 -21.671875 C 25.335938 -21.597656 25.394531 -21.515625 25.4375 -21.421875 C 25.457031 -21.222656 25.410156 -21.09375 25.296875 -21.03125 C 25.179688 -20.976562 25.0625 -20.960938 24.9375 -20.984375 L 24.71875 -20.984375 C 24.65625 -20.984375 24.585938 -20.984375 24.515625 -20.984375 C 23.816406 -21.015625 23.140625 -21.03125 22.484375 -21.03125 C 22.265625 -21.03125 22.046875 -21.03125 21.828125 -21.03125 C 21.492188 -21.03125 21.144531 -21.03125 20.78125 -21.03125 L 20.75 -21.03125 C 19.769531 -21.03125 18.800781 -21.050781 17.84375 -21.09375 C 16.894531 -21.132812 15.941406 -21.253906 14.984375 -21.453125 C 13.910156 -21.691406 12.867188 -22.050781 11.859375 -22.53125 C 11.316406 -22.789062 10.804688 -23.109375 10.328125 -23.484375 C 8.890625 -24.679688 8.53125 -26.175781 9.25 -27.96875 C 9.75 -29.144531 10.46875 -30.175781 11.40625 -31.0625 C 12.613281 -32.320312 13.945312 -33.457031 15.40625 -34.46875 C 19.375 -37.1875 23.59375 -39.378906 28.0625 -41.046875 C 31.664062 -42.429688 35.320312 -43.597656 39.03125 -44.546875 C 42.75 -45.492188 46.507812 -46.273438 50.3125 -46.890625 C 56.164062 -47.921875 62.054688 -48.445312 67.984375 -48.46875 C 68.171875 -48.46875 68.363281 -48.46875 68.5625 -48.46875 C 70.8125 -48.46875 73.050781 -48.351562 75.28125 -48.125 C 77.507812 -47.90625 79.710938 -47.484375 81.890625 -46.859375 C 83.679688 -46.359375 85.378906 -45.644531 86.984375 -44.71875 C 87.816406 -44.21875 88.566406 -43.617188 89.234375 -42.921875 C 91.429688 -40.628906 91.957031 -37.953125 90.8125 -34.890625 C 90.289062 -33.535156 89.570312 -32.269531 88.65625 -31.09375 C 86.988281 -28.882812 85.128906 -26.863281 83.078125 -25.03125 C 80.566406 -22.757812 77.945312 -20.625 75.21875 -18.625 C 75.144531 -18.550781 75.046875 -18.488281 74.921875 -18.4375 C 74.785156 -18.34375 74.644531 -18.234375 74.5 -18.109375 C 74.363281 -17.992188 74.269531 -17.832031 74.21875 -17.625 C 74.3125 -17.550781 74.394531 -17.515625 74.46875 -17.515625 C 74.59375 -17.535156 74.710938 -17.554688 74.828125 -17.578125 C 74.953125 -17.628906 75.070312 -17.664062 75.1875 -17.6875 C 82.238281 -19.125 89.304688 -20.304688 96.390625 -21.234375 C 99.816406 -21.660156 103.222656 -22.050781 106.609375 -22.40625 C 107.785156 -22.53125 108.945312 -22.648438 110.09375 -22.765625 C 110.5 -22.828125 110.914062 -22.859375 111.34375 -22.859375 C 111.75 -22.878906 112.15625 -22.835938 112.5625 -22.734375 C 112.613281 -22.710938 112.660156 -22.671875 112.703125 -22.609375 C 112.753906 -22.554688 112.78125 -22.507812 112.78125 -22.46875 C 112.800781 -22.3125 112.773438 -22.195312 112.703125 -22.125 C 112.640625 -22.050781 112.554688 -22.003906 112.453125 -21.984375 Z M 31.140625 4.171875 C 31.140625 4.171875 31.148438 4.171875 31.171875 4.171875 C 31.347656 4.097656 31.507812 4 31.65625 3.875 C 31.8125 3.757812 31.914062 3.597656 31.96875 3.390625 C 31.914062 3.390625 31.878906 3.390625 31.859375 3.390625 C 31.378906 3.410156 31.070312 3.347656 30.9375 3.203125 C 30.8125 3.054688 30.8125 2.78125 30.9375 2.375 C 31 2.113281 31.085938 1.851562 31.203125 1.59375 C 31.242188 1.519531 31.273438 1.460938 31.296875 1.421875 C 31.472656 0.941406 31.648438 0.472656 31.828125 0.015625 C 32.253906 -1.015625 32.660156 -2.054688 33.046875 -3.109375 C 33.066406 -3.148438 33.097656 -3.210938 33.140625 -3.296875 C 33.222656 -3.453125 33.273438 -3.609375 33.296875 -3.765625 C 33.316406 -3.921875 33.28125 -4.082031 33.1875 -4.25 C 33.15625 -4.25 33.128906 -4.25 33.109375 -4.25 C 32.992188 -4.226562 32.890625 -4.191406 32.796875 -4.140625 C 32.722656 -4.117188 32.660156 -4.097656 32.609375 -4.078125 C 29.578125 -2.972656 26.578125 -1.8125 23.609375 -0.59375 C 20.648438 0.625 17.726562 1.953125 14.84375 3.390625 C 12.5 4.503906 10.226562 5.757812 8.03125 7.15625 C 6.757812 7.914062 5.601562 8.820312 4.5625 9.875 C 3.988281 10.394531 3.550781 11.023438 3.25 11.765625 C 3.164062 12.003906 3.175781 12.226562 3.28125 12.4375 C 3.382812 12.65625 3.570312 12.804688 3.84375 12.890625 C 4.144531 12.972656 4.46875 13.015625 4.8125 13.015625 C 5.164062 13.015625 5.519531 12.984375 5.875 12.921875 C 8.1875 12.503906 10.476562 11.925781 12.75 11.1875 C 17.6875 9.613281 22.539062 7.820312 27.3125 5.8125 C 28.59375 5.289062 29.867188 4.742188 31.140625 4.171875 Z M 64.296875 -13.28125 C 64.316406 -13.332031 64.351562 -13.367188 64.40625 -13.390625 C 64.488281 -13.429688 64.554688 -13.488281 64.609375 -13.5625 C 64.660156 -13.644531 64.648438 -13.753906 64.578125 -13.890625 C 64.460938 -13.867188 64.328125 -13.832031 64.171875 -13.78125 C 63.367188 -13.5625 62.570312 -13.359375 61.78125 -13.171875 C 59.613281 -12.597656 57.453125 -12.015625 55.296875 -11.421875 C 49.328125 -9.742188 43.40625 -7.890625 37.53125 -5.859375 C 37.019531 -5.703125 36.59375 -5.476562 36.25 -5.1875 C 35.90625 -4.894531 35.660156 -4.484375 35.515625 -3.953125 C 35.421875 -3.691406 35.316406 -3.429688 35.203125 -3.171875 C 35.128906 -3.054688 35.066406 -2.9375 35.015625 -2.8125 C 34.867188 -2.457031 34.628906 -1.957031 34.296875 -1.3125 C 33.960938 -0.664062 33.628906 0.015625 33.296875 0.734375 C 32.960938 1.453125 32.726562 2.066406 32.59375 2.578125 C 32.457031 3.085938 32.507812 3.378906 32.75 3.453125 C 33.09375 3.378906 33.40625 3.25 33.6875 3.0625 C 33.820312 2.988281 33.96875 2.914062 34.125 2.84375 C 40.59375 0 46.925781 -3.148438 53.125 -6.609375 C 55.570312 -8.023438 58.003906 -9.457031 60.421875 -10.90625 C 61.472656 -11.5625 62.523438 -12.195312 63.578125 -12.8125 C 63.597656 -12.84375 63.617188 -12.859375 63.640625 -12.859375 C 63.878906 -12.972656 64.097656 -13.113281 64.296875 -13.28125 Z M 64.296875 -13.28125 "/></g></g></g><g fill="#000000" fill-opacity="1"><g transform="translate(62.556982, 83.437371)"><g><path d="M 55.3125 -23.09375 C 55.195312 -23.070312 55.078125 -23.070312 54.953125 -23.09375 C 54.828125 -23.113281 54.707031 -23.164062 54.59375 -23.25 C 54.46875 -23.382812 54.414062 -23.503906 54.4375 -23.609375 C 54.457031 -23.722656 54.5 -23.820312 54.5625 -23.90625 C 55.601562 -25.582031 56.503906 -27.332031 57.265625 -29.15625 C 57.742188 -30.28125 58.171875 -31.441406 58.546875 -32.640625 C 58.773438 -33.378906 58.789062 -34.175781 58.59375 -35.03125 C 58.40625 -35.9375 57.863281 -36.578125 56.96875 -36.953125 C 56.28125 -37.210938 55.570312 -37.351562 54.84375 -37.375 C 54.71875 -37.375 54.59375 -37.375 54.46875 -37.375 C 52.9375 -37.3125 51.457031 -37.09375 50.03125 -36.71875 C 47.539062 -36.113281 45.132812 -35.363281 42.8125 -34.46875 C 40.5 -33.582031 38.238281 -32.609375 36.03125 -31.546875 C 26.3125 -26.816406 17.609375 -20.84375 9.921875 -13.625 C 7.984375 -11.882812 6.285156 -9.9375 4.828125 -7.78125 C 4.328125 -7.019531 3.882812 -6.21875 3.5 -5.375 C 3.28125 -4.894531 3.128906 -4.382812 3.046875 -3.84375 C 2.710938 -2.082031 3.472656 -0.765625 5.328125 0.109375 C 6.890625 0.828125 8.472656 1.226562 10.078125 1.3125 C 11.347656 1.425781 12.582031 1.484375 13.78125 1.484375 C 14.34375 1.484375 14.882812 1.457031 15.40625 1.40625 C 23.019531 1.332031 30.207031 0.34375 36.96875 -1.5625 C 37.082031 -1.59375 37.191406 -1.617188 37.296875 -1.640625 C 37.753906 -1.804688 38.234375 -1.929688 38.734375 -2.015625 C 38.867188 -2.035156 39.085938 -2.054688 39.390625 -2.078125 C 39.691406 -2.097656 39.976562 -2.078125 40.25 -2.015625 C 40.519531 -1.960938 40.6875 -1.835938 40.75 -1.640625 C 40.769531 -1.535156 40.753906 -1.453125 40.703125 -1.390625 C 40.648438 -1.335938 40.566406 -1.304688 40.453125 -1.296875 C 40.046875 -1.179688 39.640625 -1.070312 39.234375 -0.96875 C 38.003906 -0.632812 36.78125 -0.316406 35.5625 -0.015625 C 28.707031 1.742188 21.59375 2.597656 14.21875 2.546875 C 12.695312 2.546875 11.175781 2.519531 9.65625 2.46875 C 7.945312 2.394531 6.234375 2.03125 4.515625 1.375 C 1.085938 0.0507812 -0.109375 -2.128906 0.921875 -5.171875 C 1.335938 -6.390625 1.925781 -7.515625 2.6875 -8.546875 C 3.738281 -10.066406 4.90625 -11.476562 6.1875 -12.78125 C 7.476562 -14.09375 8.820312 -15.351562 10.21875 -16.5625 C 16.4375 -22.039062 23.28125 -26.75 30.75 -30.6875 C 33.03125 -31.882812 35.351562 -33 37.71875 -34.03125 C 40.09375 -35.0625 42.539062 -35.972656 45.0625 -36.765625 C 47.175781 -37.441406 49.347656 -37.953125 51.578125 -38.296875 C 52.484375 -38.421875 53.378906 -38.484375 54.265625 -38.484375 C 54.847656 -38.484375 55.4375 -38.460938 56.03125 -38.421875 C 56.726562 -38.359375 57.421875 -38.21875 58.109375 -38 C 59.984375 -37.320312 60.941406 -36.082031 60.984375 -34.28125 C 60.984375 -33.476562 60.875 -32.707031 60.65625 -31.96875 C 60.207031 -30.53125 59.648438 -29.148438 58.984375 -27.828125 C 58.316406 -26.503906 57.601562 -25.207031 56.84375 -23.9375 C 56.625 -23.5 56.273438 -23.21875 55.796875 -23.09375 C 55.648438 -23.070312 55.507812 -23.070312 55.375 -23.09375 Z M 55.3125 -23.09375 "/></g></g></g><g fill="#000000" fill-opacity="1"><g transform="translate(51.375347, 95.856288)"><g><path d="M 3.96875 -0.09375 L 4.015625 -0.09375 C 4.171875 -0.09375 4.25 -0.160156 4.25 -0.296875 C 4.25 -0.347656 4.238281 -0.398438 4.21875 -0.453125 L 3.375 -2.71875 L 1.75 -2.71875 L 0.9375 -0.5 C 0.914062 -0.445312 0.90625 -0.398438 0.90625 -0.359375 C 0.90625 -0.273438 0.925781 -0.207031 0.96875 -0.15625 C 1.019531 -0.113281 1.070312 -0.09375 1.125 -0.09375 L 1.15625 -0.09375 L 1.15625 0 L 0.125 0 L 0.125 -0.09375 L 0.171875 -0.09375 C 0.253906 -0.09375 0.332031 -0.140625 0.40625 -0.234375 C 0.488281 -0.328125 0.554688 -0.441406 0.609375 -0.578125 L 2.734375 -6.265625 L 4.828125 -0.640625 C 4.867188 -0.515625 4.925781 -0.390625 5 -0.265625 C 5.082031 -0.148438 5.1875 -0.09375 5.3125 -0.09375 L 5.359375 -0.09375 L 5.359375 0 L 3.96875 0 Z M 1.84375 -3.03125 L 3.28125 -3.03125 L 2.5625 -4.984375 Z M 1.84375 -3.03125 "/></g></g></g><g fill="#000000" fill-opacity="1"><g transform="translate(58.801101, 95.856288)"><g><path d="M 1.6875 -0.09375 L 1.734375 -0.09375 L 1.734375 0 L 0.421875 0 L 0.421875 -0.09375 L 0.46875 -0.09375 C 0.507812 -0.09375 0.546875 -0.109375 0.578125 -0.140625 C 0.617188 -0.179688 0.648438 -0.226562 0.671875 -0.28125 C 0.703125 -0.332031 0.722656 -0.382812 0.734375 -0.4375 C 0.753906 -0.5 0.765625 -0.554688 0.765625 -0.609375 L 0.765625 -5.5625 C 0.765625 -5.613281 0.753906 -5.664062 0.734375 -5.71875 C 0.722656 -5.769531 0.703125 -5.820312 0.671875 -5.875 C 0.648438 -5.925781 0.617188 -5.96875 0.578125 -6 C 0.546875 -6.03125 0.507812 -6.046875 0.46875 -6.046875 L 0.421875 -6.046875 L 0.421875 -6.140625 L 2.046875 -6.140625 C 2.660156 -6.140625 3.132812 -6.019531 3.46875 -5.78125 C 3.8125 -5.539062 3.984375 -5.1875 3.984375 -4.71875 C 3.984375 -4.476562 3.941406 -4.269531 3.859375 -4.09375 C 3.785156 -3.914062 3.679688 -3.765625 3.546875 -3.640625 C 3.421875 -3.515625 3.269531 -3.410156 3.09375 -3.328125 C 2.914062 -3.253906 2.726562 -3.195312 2.53125 -3.15625 L 3.203125 -2.125 C 3.367188 -1.882812 3.535156 -1.644531 3.703125 -1.40625 C 3.867188 -1.164062 4.03125 -0.914062 4.1875 -0.65625 C 4.226562 -0.59375 4.273438 -0.523438 4.328125 -0.453125 C 4.390625 -0.390625 4.445312 -0.332031 4.5 -0.28125 C 4.5625 -0.226562 4.625 -0.179688 4.6875 -0.140625 C 4.75 -0.109375 4.816406 -0.09375 4.890625 -0.09375 L 4.890625 0 L 4.484375 0 C 4.234375 0 4.03125 -0.0546875 3.875 -0.171875 C 3.71875 -0.296875 3.585938 -0.441406 3.484375 -0.609375 C 3.203125 -1.015625 2.921875 -1.425781 2.640625 -1.84375 C 2.367188 -2.269531 2.097656 -2.6875 1.828125 -3.09375 C 1.753906 -3.101562 1.675781 -3.113281 1.59375 -3.125 C 1.519531 -3.132812 1.453125 -3.144531 1.390625 -3.15625 L 1.390625 -0.609375 C 1.390625 -0.554688 1.394531 -0.5 1.40625 -0.4375 C 1.414062 -0.382812 1.4375 -0.332031 1.46875 -0.28125 C 1.5 -0.226562 1.53125 -0.179688 1.5625 -0.140625 C 1.59375 -0.109375 1.632812 -0.09375 1.6875 -0.09375 Z M 1.390625 -5.828125 L 1.390625 -3.46875 L 1.4375 -3.46875 C 1.488281 -3.457031 1.566406 -3.453125 1.671875 -3.453125 C 1.773438 -3.453125 1.910156 -3.453125 2.078125 -3.453125 C 2.203125 -3.453125 2.335938 -3.46875 2.484375 -3.5 C 2.628906 -3.539062 2.765625 -3.609375 2.890625 -3.703125 C 3.023438 -3.804688 3.132812 -3.9375 3.21875 -4.09375 C 3.300781 -4.25 3.34375 -4.441406 3.34375 -4.671875 C 3.34375 -4.910156 3.296875 -5.101562 3.203125 -5.25 C 3.117188 -5.394531 2.992188 -5.507812 2.828125 -5.59375 C 2.671875 -5.6875 2.476562 -5.75 2.25 -5.78125 C 2.03125 -5.8125 1.789062 -5.828125 1.53125 -5.828125 Z M 1.390625 -5.828125 "/></g></g></g><g fill="#000000" fill-opacity="1"><g transform="translate(65.761691, 95.856288)"><g><path d="M 3.578125 -6.234375 C 4.054688 -6.234375 4.488281 -6.140625 4.875 -5.953125 C 5.257812 -5.773438 5.585938 -5.539062 5.859375 -5.25 C 6.128906 -4.957031 6.335938 -4.625 6.484375 -4.25 C 6.628906 -3.875 6.703125 -3.492188 6.703125 -3.109375 C 6.703125 -2.828125 6.671875 -2.566406 6.609375 -2.328125 C 6.554688 -2.097656 6.476562 -1.882812 6.375 -1.6875 C 6.28125 -1.488281 6.171875 -1.304688 6.046875 -1.140625 C 5.921875 -0.972656 5.785156 -0.820312 5.640625 -0.6875 L 5.9375 -0.34375 C 6.175781 -0.125 6.4375 0.0703125 6.71875 0.25 C 7.007812 0.425781 7.300781 0.578125 7.59375 0.703125 C 7.882812 0.828125 8.171875 0.921875 8.453125 0.984375 C 8.742188 1.046875 9.007812 1.078125 9.25 1.078125 C 9.445312 1.078125 9.660156 1.054688 9.890625 1.015625 C 10.128906 0.972656 10.367188 0.914062 10.609375 0.84375 C 10.847656 0.769531 11.082031 0.671875 11.3125 0.546875 C 11.550781 0.429688 11.78125 0.289062 12 0.125 L 12.046875 0.203125 C 11.847656 0.429688 11.617188 0.628906 11.359375 0.796875 C 11.109375 0.960938 10.84375 1.101562 10.5625 1.21875 C 10.28125 1.332031 9.988281 1.414062 9.6875 1.46875 C 9.394531 1.53125 9.109375 1.5625 8.828125 1.5625 C 8.546875 1.5625 8.257812 1.535156 7.96875 1.484375 C 7.6875 1.441406 7.398438 1.359375 7.109375 1.234375 C 6.828125 1.117188 6.539062 0.957031 6.25 0.75 C 5.96875 0.550781 5.6875 0.300781 5.40625 0 L 5.078125 -0.328125 C 4.972656 -0.265625 4.851562 -0.207031 4.71875 -0.15625 C 4.59375 -0.101562 4.453125 -0.0546875 4.296875 -0.015625 C 4.148438 0.015625 4 0.0390625 3.84375 0.0625 C 3.6875 0.0820312 3.539062 0.09375 3.40625 0.09375 C 2.96875 0.09375 2.5625 0.00390625 2.1875 -0.171875 C 1.820312 -0.347656 1.503906 -0.578125 1.234375 -0.859375 C 0.972656 -1.148438 0.765625 -1.484375 0.609375 -1.859375 C 0.453125 -2.234375 0.375 -2.617188 0.375 -3.015625 C 0.375 -3.410156 0.441406 -3.800781 0.578125 -4.1875 C 0.722656 -4.570312 0.929688 -4.914062 1.203125 -5.21875 C 1.484375 -5.53125 1.820312 -5.773438 2.21875 -5.953125 C 2.625 -6.140625 3.078125 -6.234375 3.578125 -6.234375 Z M 3.5625 -0.234375 C 3.976562 -0.253906 4.34375 -0.347656 4.65625 -0.515625 C 4.976562 -0.679688 5.242188 -0.894531 5.453125 -1.15625 C 5.660156 -1.425781 5.816406 -1.71875 5.921875 -2.03125 C 6.023438 -2.351562 6.078125 -2.664062 6.078125 -2.96875 C 6.078125 -3.3125 6.015625 -3.65625 5.890625 -4 C 5.765625 -4.351562 5.585938 -4.671875 5.359375 -4.953125 C 5.128906 -5.234375 4.851562 -5.460938 4.53125 -5.640625 C 4.207031 -5.816406 3.851562 -5.90625 3.46875 -5.90625 C 3.082031 -5.90625 2.734375 -5.820312 2.421875 -5.65625 C 2.117188 -5.488281 1.859375 -5.269531 1.640625 -5 C 1.429688 -4.726562 1.269531 -4.429688 1.15625 -4.109375 C 1.050781 -3.785156 1 -3.460938 1 -3.140625 C 1 -2.804688 1.0625 -2.460938 1.1875 -2.109375 C 1.3125 -1.765625 1.488281 -1.453125 1.71875 -1.171875 C 1.945312 -0.890625 2.21875 -0.660156 2.53125 -0.484375 C 2.851562 -0.316406 3.195312 -0.234375 3.5625 -0.234375 Z M 3.5625 -0.234375 "/></g></g></g><g fill="#000000" fill-opacity="1"><g transform="translate(74.871339, 95.856288)"><g><path d="M 0.421875 -6.140625 L 1.734375 -6.140625 L 1.734375 -6.046875 L 1.6875 -6.046875 C 1.644531 -6.046875 1.601562 -6.03125 1.5625 -6 C 1.53125 -5.96875 1.5 -5.925781 1.46875 -5.875 C 1.4375 -5.820312 1.414062 -5.769531 1.40625 -5.71875 C 1.394531 -5.664062 1.390625 -5.613281 1.390625 -5.5625 L 1.390625 -1.890625 C 1.390625 -1.648438 1.410156 -1.425781 1.453125 -1.21875 C 1.503906 -1.007812 1.585938 -0.832031 1.703125 -0.6875 C 1.828125 -0.539062 1.984375 -0.425781 2.171875 -0.34375 C 2.367188 -0.257812 2.609375 -0.21875 2.890625 -0.21875 C 3.203125 -0.21875 3.445312 -0.265625 3.625 -0.359375 C 3.8125 -0.460938 3.953125 -0.59375 4.046875 -0.75 C 4.148438 -0.90625 4.21875 -1.082031 4.25 -1.28125 C 4.28125 -1.476562 4.296875 -1.675781 4.296875 -1.875 L 4.296875 -5.5625 C 4.296875 -5.613281 4.289062 -5.664062 4.28125 -5.71875 C 4.269531 -5.769531 4.25 -5.820312 4.21875 -5.875 C 4.195312 -5.925781 4.164062 -5.96875 4.125 -6 C 4.082031 -6.03125 4.039062 -6.046875 4 -6.046875 L 3.953125 -6.046875 L 3.953125 -6.140625 L 4.96875 -6.140625 L 4.96875 -6.046875 L 4.921875 -6.046875 C 4.878906 -6.046875 4.835938 -6.03125 4.796875 -6 C 4.765625 -5.96875 4.734375 -5.925781 4.703125 -5.875 C 4.679688 -5.820312 4.660156 -5.769531 4.640625 -5.71875 C 4.628906 -5.664062 4.625 -5.613281 4.625 -5.5625 L 4.625 -1.90625 C 4.625 -1.5 4.570312 -1.164062 4.46875 -0.90625 C 4.375 -0.644531 4.238281 -0.441406 4.0625 -0.296875 C 3.894531 -0.148438 3.691406 -0.0507812 3.453125 0 C 3.222656 0.0625 2.976562 0.09375 2.71875 0.09375 C 2.4375 0.09375 2.175781 0.0625 1.9375 0 C 1.695312 -0.0507812 1.488281 -0.148438 1.3125 -0.296875 C 1.144531 -0.453125 1.007812 -0.65625 0.90625 -0.90625 C 0.8125 -1.164062 0.765625 -1.492188 0.765625 -1.890625 L 0.765625 -5.5625 C 0.765625 -5.613281 0.753906 -5.664062 0.734375 -5.71875 C 0.722656 -5.769531 0.703125 -5.820312 0.671875 -5.875 C 0.648438 -5.925781 0.617188 -5.96875 0.578125 -6 C 0.546875 -6.03125 0.507812 -6.046875 0.46875 -6.046875 L 0.421875 -6.046875 Z M 0.421875 -6.140625 "/></g></g></g><g fill="#000000" fill-opacity="1"><g transform="translate(82.24127, 95.856288)"><g><path d="M 0.453125 -6.140625 L 1.78125 -6.140625 L 1.78125 -6.046875 L 1.734375 -6.046875 C 1.691406 -6.046875 1.648438 -6.03125 1.609375 -6 C 1.578125 -5.96875 1.546875 -5.925781 1.515625 -5.875 C 1.492188 -5.832031 1.472656 -5.78125 1.453125 -5.71875 C 1.441406 -5.664062 1.4375 -5.613281 1.4375 -5.5625 L 1.4375 -0.609375 C 1.4375 -0.554688 1.441406 -0.5 1.453125 -0.4375 C 1.472656 -0.382812 1.492188 -0.332031 1.515625 -0.28125 C 1.546875 -0.226562 1.578125 -0.179688 1.609375 -0.140625 C 1.648438 -0.109375 1.691406 -0.09375 1.734375 -0.09375 L 1.78125 -0.09375 L 1.78125 0 L 0.453125 0 L 0.453125 -0.09375 L 0.5 -0.09375 C 0.550781 -0.09375 0.59375 -0.109375 0.625 -0.140625 C 0.664062 -0.179688 0.695312 -0.226562 0.71875 -0.28125 C 0.75 -0.332031 0.769531 -0.382812 0.78125 -0.4375 C 0.800781 -0.5 0.8125 -0.554688 0.8125 -0.609375 L 0.8125 -5.5625 C 0.8125 -5.613281 0.800781 -5.664062 0.78125 -5.71875 C 0.769531 -5.769531 0.75 -5.820312 0.71875 -5.875 C 0.695312 -5.925781 0.664062 -5.96875 0.625 -6 C 0.59375 -6.03125 0.550781 -6.046875 0.5 -6.046875 L 0.453125 -6.046875 Z M 0.453125 -6.140625 "/></g></g></g><g fill="#000000" fill-opacity="1"><g transform="translate(86.438764, 95.856288)"><g><path d="M 2.78125 -0.09375 L 2.828125 -0.09375 L 2.828125 0 L 1.5 0 L 1.5 -0.09375 L 1.546875 -0.09375 C 1.597656 -0.09375 1.640625 -0.109375 1.671875 -0.140625 C 1.710938 -0.179688 1.742188 -0.226562 1.765625 -0.28125 C 1.796875 -0.332031 1.816406 -0.382812 1.828125 -0.4375 C 1.847656 -0.5 1.859375 -0.554688 1.859375 -0.609375 L 1.859375 -5.796875 L 0.765625 -5.796875 C 0.671875 -5.796875 0.585938 -5.773438 0.515625 -5.734375 C 0.441406 -5.691406 0.378906 -5.632812 0.328125 -5.5625 C 0.273438 -5.5 0.234375 -5.429688 0.203125 -5.359375 C 0.179688 -5.285156 0.171875 -5.207031 0.171875 -5.125 L 0.078125 -5.125 L 0.078125 -6.140625 L 4.265625 -6.140625 L 4.265625 -5.125 L 4.171875 -5.125 C 4.171875 -5.207031 4.15625 -5.285156 4.125 -5.359375 C 4.101562 -5.429688 4.066406 -5.5 4.015625 -5.5625 C 3.972656 -5.632812 3.910156 -5.691406 3.828125 -5.734375 C 3.753906 -5.773438 3.671875 -5.796875 3.578125 -5.796875 L 2.484375 -5.796875 L 2.484375 -0.609375 C 2.484375 -0.554688 2.488281 -0.5 2.5 -0.4375 C 2.507812 -0.382812 2.523438 -0.332031 2.546875 -0.28125 C 2.578125 -0.226562 2.609375 -0.179688 2.640625 -0.140625 C 2.679688 -0.109375 2.726562 -0.09375 2.78125 -0.09375 Z M 2.78125 -0.09375 "/></g></g></g><g fill="#000000" fill-opacity="1"><g transform="translate(92.729516, 95.856288)"><g><path d="M 0.421875 -0.09375 L 0.46875 -0.09375 C 0.519531 -0.09375 0.5625 -0.109375 0.59375 -0.140625 C 0.632812 -0.179688 0.664062 -0.222656 0.6875 -0.265625 C 0.71875 -0.316406 0.738281 -0.367188 0.75 -0.421875 C 0.769531 -0.484375 0.78125 -0.539062 0.78125 -0.59375 L 0.78125 -5.5625 C 0.78125 -5.613281 0.769531 -5.664062 0.75 -5.71875 C 0.738281 -5.769531 0.71875 -5.820312 0.6875 -5.875 C 0.664062 -5.925781 0.632812 -5.96875 0.59375 -6 C 0.5625 -6.03125 0.519531 -6.046875 0.46875 -6.046875 L 0.421875 -6.046875 L 0.421875 -6.140625 L 4 -6.140625 L 4 -5.28125 L 3.90625 -5.28125 C 3.894531 -5.425781 3.835938 -5.550781 3.734375 -5.65625 C 3.640625 -5.757812 3.488281 -5.8125 3.28125 -5.8125 L 1.40625 -5.8125 L 1.40625 -3.46875 L 2.953125 -3.46875 C 3.097656 -3.46875 3.21875 -3.507812 3.3125 -3.59375 C 3.40625 -3.675781 3.453125 -3.78125 3.453125 -3.90625 L 3.546875 -3.90625 L 3.546875 -2.734375 L 3.453125 -2.734375 C 3.453125 -2.847656 3.40625 -2.941406 3.3125 -3.015625 C 3.21875 -3.097656 3.097656 -3.140625 2.953125 -3.140625 L 1.40625 -3.140625 L 1.40625 -0.328125 L 3.453125 -0.328125 C 3.566406 -0.328125 3.664062 -0.351562 3.75 -0.40625 C 3.84375 -0.46875 3.914062 -0.535156 3.96875 -0.609375 C 4.03125 -0.679688 4.070312 -0.765625 4.09375 -0.859375 C 4.125 -0.953125 4.140625 -1.03125 4.140625 -1.09375 L 4.234375 -1.09375 L 4.234375 0 L 0.421875 0 Z M 0.421875 -0.09375 "/></g></g></g><g fill="#000000" fill-opacity="1"><g transform="translate(99.178424, 95.856288)"><g><path d="M 2.78125 -0.09375 L 2.828125 -0.09375 L 2.828125 0 L 1.5 0 L 1.5 -0.09375 L 1.546875 -0.09375 C 1.597656 -0.09375 1.640625 -0.109375 1.671875 -0.140625 C 1.710938 -0.179688 1.742188 -0.226562 1.765625 -0.28125 C 1.796875 -0.332031 1.816406 -0.382812 1.828125 -0.4375 C 1.847656 -0.5 1.859375 -0.554688 1.859375 -0.609375 L 1.859375 -5.796875 L 0.765625 -5.796875 C 0.671875 -5.796875 0.585938 -5.773438 0.515625 -5.734375 C 0.441406 -5.691406 0.378906 -5.632812 0.328125 -5.5625 C 0.273438 -5.5 0.234375 -5.429688 0.203125 -5.359375 C 0.179688 -5.285156 0.171875 -5.207031 0.171875 -5.125 L 0.078125 -5.125 L 0.078125 -6.140625 L 4.265625 -6.140625 L 4.265625 -5.125 L 4.171875 -5.125 C 4.171875 -5.207031 4.15625 -5.285156 4.125 -5.359375 C 4.101562 -5.429688 4.066406 -5.5 4.015625 -5.5625 C 3.972656 -5.632812 3.910156 -5.691406 3.828125 -5.734375 C 3.753906 -5.773438 3.671875 -5.796875 3.578125 -5.796875 L 2.484375 -5.796875 L 2.484375 -0.609375 C 2.484375 -0.554688 2.488281 -0.5 2.5 -0.4375 C 2.507812 -0.382812 2.523438 -0.332031 2.546875 -0.28125 C 2.578125 -0.226562 2.609375 -0.179688 2.640625 -0.140625 C 2.679688 -0.109375 2.726562 -0.09375 2.78125 -0.09375 Z M 2.78125 -0.09375 "/></g></g></g><g fill="#000000" fill-opacity="1"><g transform="translate(105.469176, 95.856288)"><g><path d="M 0.421875 -6.140625 L 1.734375 -6.140625 L 1.734375 -6.046875 L 1.6875 -6.046875 C 1.644531 -6.046875 1.601562 -6.03125 1.5625 -6 C 1.53125 -5.96875 1.5 -5.925781 1.46875 -5.875 C 1.4375 -5.820312 1.414062 -5.769531 1.40625 -5.71875 C 1.394531 -5.664062 1.390625 -5.613281 1.390625 -5.5625 L 1.390625 -1.890625 C 1.390625 -1.648438 1.410156 -1.425781 1.453125 -1.21875 C 1.503906 -1.007812 1.585938 -0.832031 1.703125 -0.6875 C 1.828125 -0.539062 1.984375 -0.425781 2.171875 -0.34375 C 2.367188 -0.257812 2.609375 -0.21875 2.890625 -0.21875 C 3.203125 -0.21875 3.445312 -0.265625 3.625 -0.359375 C 3.8125 -0.460938 3.953125 -0.59375 4.046875 -0.75 C 4.148438 -0.90625 4.21875 -1.082031 4.25 -1.28125 C 4.28125 -1.476562 4.296875 -1.675781 4.296875 -1.875 L 4.296875 -5.5625 C 4.296875 -5.613281 4.289062 -5.664062 4.28125 -5.71875 C 4.269531 -5.769531 4.25 -5.820312 4.21875 -5.875 C 4.195312 -5.925781 4.164062 -5.96875 4.125 -6 C 4.082031 -6.03125 4.039062 -6.046875 4 -6.046875 L 3.953125 -6.046875 L 3.953125 -6.140625 L 4.96875 -6.140625 L 4.96875 -6.046875 L 4.921875 -6.046875 C 4.878906 -6.046875 4.835938 -6.03125 4.796875 -6 C 4.765625 -5.96875 4.734375 -5.925781 4.703125 -5.875 C 4.679688 -5.820312 4.660156 -5.769531 4.640625 -5.71875 C 4.628906 -5.664062 4.625 -5.613281 4.625 -5.5625 L 4.625 -1.90625 C 4.625 -1.5 4.570312 -1.164062 4.46875 -0.90625 C 4.375 -0.644531 4.238281 -0.441406 4.0625 -0.296875 C 3.894531 -0.148438 3.691406 -0.0507812 3.453125 0 C 3.222656 0.0625 2.976562 0.09375 2.71875 0.09375 C 2.4375 0.09375 2.175781 0.0625 1.9375 0 C 1.695312 -0.0507812 1.488281 -0.148438 1.3125 -0.296875 C 1.144531 -0.453125 1.007812 -0.65625 0.90625 -0.90625 C 0.8125 -1.164062 0.765625 -1.492188 0.765625 -1.890625 L 0.765625 -5.5625 C 0.765625 -5.613281 0.753906 -5.664062 0.734375 -5.71875 C 0.722656 -5.769531 0.703125 -5.820312 0.671875 -5.875 C 0.648438 -5.925781 0.617188 -5.96875 0.578125 -6 C 0.546875 -6.03125 0.507812 -6.046875 0.46875 -6.046875 L 0.421875 -6.046875 Z M 0.421875 -6.140625 "/></g></g></g><g fill="#000000" fill-opacity="1"><g transform="translate(112.839108, 95.856288)"><g><path d="M 1.6875 -0.09375 L 1.734375 -0.09375 L 1.734375 0 L 0.421875 0 L 0.421875 -0.09375 L 0.46875 -0.09375 C 0.507812 -0.09375 0.546875 -0.109375 0.578125 -0.140625 C 0.617188 -0.179688 0.648438 -0.226562 0.671875 -0.28125 C 0.703125 -0.332031 0.722656 -0.382812 0.734375 -0.4375 C 0.753906 -0.5 0.765625 -0.554688 0.765625 -0.609375 L 0.765625 -5.5625 C 0.765625 -5.613281 0.753906 -5.664062 0.734375 -5.71875 C 0.722656 -5.769531 0.703125 -5.820312 0.671875 -5.875 C 0.648438 -5.925781 0.617188 -5.96875 0.578125 -6 C 0.546875 -6.03125 0.507812 -6.046875 0.46875 -6.046875 L 0.421875 -6.046875 L 0.421875 -6.140625 L 2.046875 -6.140625 C 2.660156 -6.140625 3.132812 -6.019531 3.46875 -5.78125 C 3.8125 -5.539062 3.984375 -5.1875 3.984375 -4.71875 C 3.984375 -4.476562 3.941406 -4.269531 3.859375 -4.09375 C 3.785156 -3.914062 3.679688 -3.765625 3.546875 -3.640625 C 3.421875 -3.515625 3.269531 -3.410156 3.09375 -3.328125 C 2.914062 -3.253906 2.726562 -3.195312 2.53125 -3.15625 L 3.203125 -2.125 C 3.367188 -1.882812 3.535156 -1.644531 3.703125 -1.40625 C 3.867188 -1.164062 4.03125 -0.914062 4.1875 -0.65625 C 4.226562 -0.59375 4.273438 -0.523438 4.328125 -0.453125 C 4.390625 -0.390625 4.445312 -0.332031 4.5 -0.28125 C 4.5625 -0.226562 4.625 -0.179688 4.6875 -0.140625 C 4.75 -0.109375 4.816406 -0.09375 4.890625 -0.09375 L 4.890625 0 L 4.484375 0 C 4.234375 0 4.03125 -0.0546875 3.875 -0.171875 C 3.71875 -0.296875 3.585938 -0.441406 3.484375 -0.609375 C 3.203125 -1.015625 2.921875 -1.425781 2.640625 -1.84375 C 2.367188 -2.269531 2.097656 -2.6875 1.828125 -3.09375 C 1.753906 -3.101562 1.675781 -3.113281 1.59375 -3.125 C 1.519531 -3.132812 1.453125 -3.144531 1.390625 -3.15625 L 1.390625 -0.609375 C 1.390625 -0.554688 1.394531 -0.5 1.40625 -0.4375 C 1.414062 -0.382812 1.4375 -0.332031 1.46875 -0.28125 C 1.5 -0.226562 1.53125 -0.179688 1.5625 -0.140625 C 1.59375 -0.109375 1.632812 -0.09375 1.6875 -0.09375 Z M 1.390625 -5.828125 L 1.390625 -3.46875 L 1.4375 -3.46875 C 1.488281 -3.457031 1.566406 -3.453125 1.671875 -3.453125 C 1.773438 -3.453125 1.910156 -3.453125 2.078125 -3.453125 C 2.203125 -3.453125 2.335938 -3.46875 2.484375 -3.5 C 2.628906 -3.539062 2.765625 -3.609375 2.890625 -3.703125 C 3.023438 -3.804688 3.132812 -3.9375 3.21875 -4.09375 C 3.300781 -4.25 3.34375 -4.441406 3.34375 -4.671875 C 3.34375 -4.910156 3.296875 -5.101562 3.203125 -5.25 C 3.117188 -5.394531 2.992188 -5.507812 2.828125 -5.59375 C 2.671875 -5.6875 2.476562 -5.75 2.25 -5.78125 C 2.03125 -5.8125 1.789062 -5.828125 1.53125 -5.828125 Z M 1.390625 -5.828125 "/></g></g></g><g fill="#000000" fill-opacity="1"><g transform="translate(119.7997, 95.856288)"><g><path d="M 3.96875 -0.09375 L 4.015625 -0.09375 C 4.171875 -0.09375 4.25 -0.160156 4.25 -0.296875 C 4.25 -0.347656 4.238281 -0.398438 4.21875 -0.453125 L 3.375 -2.71875 L 1.75 -2.71875 L 0.9375 -0.5 C 0.914062 -0.445312 0.90625 -0.398438 0.90625 -0.359375 C 0.90625 -0.273438 0.925781 -0.207031 0.96875 -0.15625 C 1.019531 -0.113281 1.070312 -0.09375 1.125 -0.09375 L 1.15625 -0.09375 L 1.15625 0 L 0.125 0 L 0.125 -0.09375 L 0.171875 -0.09375 C 0.253906 -0.09375 0.332031 -0.140625 0.40625 -0.234375 C 0.488281 -0.328125 0.554688 -0.441406 0.609375 -0.578125 L 2.734375 -6.265625 L 4.828125 -0.640625 C 4.867188 -0.515625 4.925781 -0.390625 5 -0.265625 C 5.082031 -0.148438 5.1875 -0.09375 5.3125 -0.09375 L 5.359375 -0.09375 L 5.359375 0 L 3.96875 0 Z M 1.84375 -3.03125 L 3.28125 -3.03125 L 2.5625 -4.984375 Z M 1.84375 -3.03125 "/></g></g></g><g fill="#000000" fill-opacity="1"><g transform="translate(127.225455, 95.856288)"><g/></g></g><g fill="#000000" fill-opacity="1"><g transform="translate(131.581115, 95.856288)"><g><path d="M 5.953125 -0.6875 C 6.078125 -0.570312 6.203125 -0.472656 6.328125 -0.390625 C 6.429688 -0.316406 6.535156 -0.25 6.640625 -0.1875 C 6.753906 -0.125 6.859375 -0.09375 6.953125 -0.09375 L 6.953125 0 L 6.421875 0 C 6.191406 0 5.984375 -0.0390625 5.796875 -0.125 C 5.617188 -0.21875 5.453125 -0.328125 5.296875 -0.453125 L 4.375 -1.1875 C 4.03125 -0.726562 3.679688 -0.398438 3.328125 -0.203125 C 2.972656 -0.015625 2.578125 0.078125 2.140625 0.078125 C 1.859375 0.078125 1.609375 0.0351562 1.390625 -0.046875 C 1.171875 -0.128906 0.984375 -0.238281 0.828125 -0.375 C 0.679688 -0.519531 0.566406 -0.679688 0.484375 -0.859375 C 0.398438 -1.046875 0.359375 -1.238281 0.359375 -1.4375 C 0.359375 -1.875 0.46875 -2.238281 0.6875 -2.53125 C 0.90625 -2.832031 1.269531 -3.109375 1.78125 -3.359375 C 1.476562 -3.597656 1.242188 -3.835938 1.078125 -4.078125 C 0.921875 -4.328125 0.84375 -4.582031 0.84375 -4.84375 C 0.84375 -5.019531 0.875 -5.1875 0.9375 -5.34375 C 1.007812 -5.507812 1.109375 -5.648438 1.234375 -5.765625 C 1.359375 -5.890625 1.503906 -5.988281 1.671875 -6.0625 C 1.835938 -6.132812 2.019531 -6.171875 2.21875 -6.171875 C 2.445312 -6.171875 2.648438 -6.128906 2.828125 -6.046875 C 3.015625 -5.972656 3.171875 -5.867188 3.296875 -5.734375 C 3.421875 -5.609375 3.515625 -5.457031 3.578125 -5.28125 C 3.640625 -5.113281 3.671875 -4.941406 3.671875 -4.765625 C 3.671875 -4.535156 3.597656 -4.296875 3.453125 -4.046875 C 3.304688 -3.796875 3.054688 -3.570312 2.703125 -3.375 C 2.992188 -3.132812 3.289062 -2.882812 3.59375 -2.625 C 3.894531 -2.375 4.195312 -2.132812 4.5 -1.90625 C 4.625 -2.144531 4.722656 -2.390625 4.796875 -2.640625 C 4.878906 -2.890625 4.941406 -3.117188 4.984375 -3.328125 C 5.035156 -3.535156 5.066406 -3.71875 5.078125 -3.875 C 5.097656 -4.03125 5.109375 -4.140625 5.109375 -4.203125 C 5.109375 -4.285156 5.078125 -4.359375 5.015625 -4.421875 C 4.953125 -4.492188 4.882812 -4.53125 4.8125 -4.53125 L 4.8125 -4.625 L 5.765625 -4.625 L 5.765625 -4.53125 C 5.703125 -4.53125 5.632812 -4.5 5.5625 -4.4375 C 5.5 -4.375 5.460938 -4.300781 5.453125 -4.21875 C 5.421875 -3.894531 5.367188 -3.582031 5.296875 -3.28125 C 5.242188 -3.019531 5.171875 -2.742188 5.078125 -2.453125 C 4.984375 -2.171875 4.867188 -1.925781 4.734375 -1.71875 C 4.859375 -1.59375 4.988281 -1.472656 5.125 -1.359375 C 5.269531 -1.242188 5.410156 -1.128906 5.546875 -1.015625 Z M 1.421875 -4.875 C 1.460938 -4.65625 1.582031 -4.4375 1.78125 -4.21875 C 1.988281 -4.007812 2.207031 -3.8125 2.4375 -3.625 C 2.675781 -3.71875 2.859375 -3.863281 2.984375 -4.0625 C 3.117188 -4.269531 3.1875 -4.472656 3.1875 -4.671875 C 3.1875 -4.816406 3.160156 -4.957031 3.109375 -5.09375 C 3.066406 -5.238281 3 -5.367188 2.90625 -5.484375 C 2.820312 -5.597656 2.707031 -5.691406 2.5625 -5.765625 C 2.425781 -5.835938 2.265625 -5.875 2.078125 -5.875 C 1.867188 -5.875 1.703125 -5.789062 1.578125 -5.625 C 1.460938 -5.46875 1.40625 -5.28125 1.40625 -5.0625 C 1.40625 -5.03125 1.40625 -5 1.40625 -4.96875 C 1.40625 -4.9375 1.410156 -4.90625 1.421875 -4.875 Z M 2.40625 -0.234375 C 2.71875 -0.234375 3.019531 -0.335938 3.3125 -0.546875 C 3.613281 -0.765625 3.890625 -1.039062 4.140625 -1.375 C 3.796875 -1.664062 3.445312 -1.957031 3.09375 -2.25 C 2.738281 -2.539062 2.394531 -2.828125 2.0625 -3.109375 C 1.675781 -2.929688 1.394531 -2.707031 1.21875 -2.4375 C 1.039062 -2.175781 0.953125 -1.90625 0.953125 -1.625 C 0.953125 -1.457031 0.988281 -1.289062 1.0625 -1.125 C 1.132812 -0.96875 1.234375 -0.820312 1.359375 -0.6875 C 1.492188 -0.5625 1.648438 -0.457031 1.828125 -0.375 C 2.015625 -0.289062 2.207031 -0.242188 2.40625 -0.234375 Z M 2.40625 -0.234375 "/></g></g></g><g fill="#000000" fill-opacity="1"><g transform="translate(60.967977, 107.152854)"><g><path d="M 0.28125 -0.0625 L 0.3125 -0.0625 C 0.351562 -0.0625 0.382812 -0.0703125 0.40625 -0.09375 C 0.4375 -0.125 0.457031 -0.15625 0.46875 -0.1875 C 0.488281 -0.21875 0.503906 -0.25 0.515625 -0.28125 C 0.523438 -0.320312 0.53125 -0.363281 0.53125 -0.40625 L 0.53125 -3.828125 C 0.53125 -3.847656 0.523438 -3.878906 0.515625 -3.921875 C 0.503906 -3.960938 0.488281 -4 0.46875 -4.03125 C 0.457031 -4.0625 0.4375 -4.085938 0.40625 -4.109375 C 0.382812 -4.140625 0.351562 -4.15625 0.3125 -4.15625 L 0.28125 -4.15625 L 0.28125 -4.21875 L 2.75 -4.21875 L 2.75 -3.625 L 2.6875 -3.625 C 2.675781 -3.71875 2.632812 -3.800781 2.5625 -3.875 C 2.5 -3.957031 2.394531 -4 2.25 -4 L 0.96875 -4 L 0.96875 -2.375 L 2.03125 -2.375 C 2.125 -2.375 2.203125 -2.40625 2.265625 -2.46875 C 2.335938 -2.53125 2.375 -2.597656 2.375 -2.671875 L 2.4375 -2.671875 L 2.4375 -1.875 L 2.375 -1.875 C 2.375 -1.957031 2.335938 -2.023438 2.265625 -2.078125 C 2.203125 -2.128906 2.125 -2.15625 2.03125 -2.15625 L 0.96875 -2.15625 L 0.96875 -0.21875 L 2.359375 -0.21875 C 2.441406 -0.21875 2.515625 -0.238281 2.578125 -0.28125 C 2.640625 -0.320312 2.6875 -0.367188 2.71875 -0.421875 C 2.757812 -0.472656 2.789062 -0.53125 2.8125 -0.59375 C 2.832031 -0.65625 2.84375 -0.707031 2.84375 -0.75 L 2.90625 -0.75 L 2.90625 0 L 0.28125 0 Z M 0.28125 -0.0625 "/></g></g></g><g fill="#000000" fill-opacity="1"><g transform="translate(66.333961, 107.152854)"><g><path d="M 0.953125 -0.0625 L 0.984375 -0.0625 L 0.984375 0 L 0.28125 0 L 0.28125 -0.0625 L 0.3125 -0.0625 C 0.34375 -0.0625 0.367188 -0.0703125 0.390625 -0.09375 C 0.421875 -0.125 0.441406 -0.15625 0.453125 -0.1875 C 0.472656 -0.226562 0.488281 -0.265625 0.5 -0.296875 C 0.519531 -0.335938 0.53125 -0.378906 0.53125 -0.421875 L 0.53125 -3.828125 C 0.53125 -3.847656 0.523438 -3.878906 0.515625 -3.921875 C 0.503906 -3.960938 0.488281 -4 0.46875 -4.03125 C 0.457031 -4.0625 0.4375 -4.085938 0.40625 -4.109375 C 0.375 -4.140625 0.335938 -4.15625 0.296875 -4.15625 L 0.265625 -4.15625 L 0.265625 -4.21875 L 0.90625 -4.21875 L 3.234375 -0.5625 L 3.234375 -3.828125 C 3.234375 -3.847656 3.226562 -3.878906 3.21875 -3.921875 C 3.207031 -3.960938 3.191406 -4 3.171875 -4.03125 C 3.148438 -4.0625 3.125 -4.085938 3.09375 -4.109375 C 3.070312 -4.140625 3.046875 -4.15625 3.015625 -4.15625 L 2.984375 -4.15625 L 2.984375 -4.21875 L 3.703125 -4.21875 L 3.703125 -4.15625 L 3.671875 -4.15625 C 3.628906 -4.15625 3.597656 -4.140625 3.578125 -4.109375 C 3.554688 -4.085938 3.535156 -4.0625 3.515625 -4.03125 C 3.492188 -4 3.476562 -3.960938 3.46875 -3.921875 C 3.457031 -3.878906 3.453125 -3.847656 3.453125 -3.828125 L 3.453125 0 L 3.0625 0 L 0.75 -3.671875 L 0.75 -0.421875 C 0.75 -0.378906 0.75 -0.335938 0.75 -0.296875 C 0.757812 -0.265625 0.773438 -0.226562 0.796875 -0.1875 C 0.816406 -0.15625 0.835938 -0.125 0.859375 -0.09375 C 0.890625 -0.0703125 0.921875 -0.0625 0.953125 -0.0625 Z M 0.953125 -0.0625 "/></g></g></g><g fill="#000000" fill-opacity="1"><g transform="translate(72.613447, 107.152854)"><g><path d="M 3.03125 -2.21875 L 3.953125 -2.21875 L 3.953125 -2.15625 L 3.921875 -2.15625 C 3.878906 -2.15625 3.847656 -2.144531 3.828125 -2.125 C 3.804688 -2.101562 3.785156 -2.070312 3.765625 -2.03125 C 3.742188 -2 3.726562 -1.960938 3.71875 -1.921875 C 3.707031 -1.890625 3.703125 -1.859375 3.703125 -1.828125 L 3.703125 -0.109375 C 3.628906 -0.078125 3.539062 -0.0507812 3.4375 -0.03125 C 3.34375 -0.0078125 3.242188 0.00390625 3.140625 0.015625 C 3.035156 0.0234375 2.925781 0.0351562 2.8125 0.046875 C 2.695312 0.0546875 2.59375 0.0625 2.5 0.0625 C 2.125 0.0625 1.789062 0 1.5 -0.125 C 1.21875 -0.25 0.984375 -0.414062 0.796875 -0.625 C 0.609375 -0.832031 0.46875 -1.066406 0.375 -1.328125 C 0.28125 -1.585938 0.234375 -1.847656 0.234375 -2.109375 C 0.234375 -2.378906 0.28125 -2.644531 0.375 -2.90625 C 0.46875 -3.164062 0.609375 -3.394531 0.796875 -3.59375 C 0.984375 -3.800781 1.21875 -3.96875 1.5 -4.09375 C 1.789062 -4.21875 2.132812 -4.28125 2.53125 -4.28125 C 2.6875 -4.28125 2.828125 -4.265625 2.953125 -4.234375 C 3.078125 -4.210938 3.191406 -4.191406 3.296875 -4.171875 C 3.347656 -4.160156 3.394531 -4.148438 3.4375 -4.140625 C 3.476562 -4.128906 3.515625 -4.125 3.546875 -4.125 L 3.59375 -4.125 L 3.59375 -3.4375 L 3.53125 -3.4375 C 3.507812 -3.570312 3.457031 -3.679688 3.375 -3.765625 C 3.300781 -3.847656 3.21875 -3.910156 3.125 -3.953125 C 3.03125 -3.992188 2.925781 -4.019531 2.8125 -4.03125 C 2.707031 -4.050781 2.609375 -4.0625 2.515625 -4.0625 C 2.191406 -4.0625 1.910156 -4.003906 1.671875 -3.890625 C 1.441406 -3.773438 1.25 -3.628906 1.09375 -3.453125 C 0.945312 -3.273438 0.835938 -3.070312 0.765625 -2.84375 C 0.703125 -2.625 0.671875 -2.398438 0.671875 -2.171875 C 0.671875 -1.929688 0.71875 -1.691406 0.8125 -1.453125 C 0.90625 -1.210938 1.035156 -0.992188 1.203125 -0.796875 C 1.367188 -0.609375 1.570312 -0.457031 1.8125 -0.34375 C 2.050781 -0.226562 2.320312 -0.171875 2.625 -0.171875 C 2.695312 -0.171875 2.789062 -0.175781 2.90625 -0.1875 C 3.03125 -0.207031 3.15625 -0.253906 3.28125 -0.328125 L 3.28125 -1.828125 C 3.28125 -1.859375 3.273438 -1.890625 3.265625 -1.921875 C 3.253906 -1.960938 3.238281 -2 3.21875 -2.03125 C 3.195312 -2.070312 3.175781 -2.101562 3.15625 -2.125 C 3.132812 -2.144531 3.101562 -2.15625 3.0625 -2.15625 L 3.03125 -2.15625 Z M 3.03125 -2.21875 "/></g></g></g><g fill="#000000" fill-opacity="1"><g transform="translate(79.078181, 107.152854)"><g><path d="M 0.28125 -0.0625 L 0.3125 -0.0625 C 0.351562 -0.0625 0.382812 -0.0703125 0.40625 -0.09375 C 0.4375 -0.125 0.457031 -0.15625 0.46875 -0.1875 C 0.488281 -0.21875 0.503906 -0.25 0.515625 -0.28125 C 0.523438 -0.320312 0.53125 -0.363281 0.53125 -0.40625 L 0.53125 -3.828125 C 0.53125 -3.847656 0.523438 -3.878906 0.515625 -3.921875 C 0.503906 -3.960938 0.488281 -4 0.46875 -4.03125 C 0.457031 -4.0625 0.4375 -4.085938 0.40625 -4.109375 C 0.382812 -4.140625 0.351562 -4.15625 0.3125 -4.15625 L 0.28125 -4.15625 L 0.28125 -4.21875 L 2.75 -4.21875 L 2.75 -3.625 L 2.6875 -3.625 C 2.675781 -3.71875 2.632812 -3.800781 2.5625 -3.875 C 2.5 -3.957031 2.394531 -4 2.25 -4 L 0.96875 -4 L 0.96875 -2.375 L 2.03125 -2.375 C 2.125 -2.375 2.203125 -2.40625 2.265625 -2.46875 C 2.335938 -2.53125 2.375 -2.597656 2.375 -2.671875 L 2.4375 -2.671875 L 2.4375 -1.875 L 2.375 -1.875 C 2.375 -1.957031 2.335938 -2.023438 2.265625 -2.078125 C 2.203125 -2.128906 2.125 -2.15625 2.03125 -2.15625 L 0.96875 -2.15625 L 0.96875 -0.21875 L 2.359375 -0.21875 C 2.441406 -0.21875 2.515625 -0.238281 2.578125 -0.28125 C 2.640625 -0.320312 2.6875 -0.367188 2.71875 -0.421875 C 2.757812 -0.472656 2.789062 -0.53125 2.8125 -0.59375 C 2.832031 -0.65625 2.84375 -0.707031 2.84375 -0.75 L 2.90625 -0.75 L 2.90625 0 L 0.28125 0 Z M 0.28125 -0.0625 "/></g></g></g><g fill="#000000" fill-opacity="1"><g transform="translate(84.444166, 107.152854)"><g><path d="M 0.953125 -0.0625 L 0.984375 -0.0625 L 0.984375 0 L 0.28125 0 L 0.28125 -0.0625 L 0.3125 -0.0625 C 0.34375 -0.0625 0.367188 -0.0703125 0.390625 -0.09375 C 0.421875 -0.125 0.441406 -0.15625 0.453125 -0.1875 C 0.472656 -0.226562 0.488281 -0.265625 0.5 -0.296875 C 0.519531 -0.335938 0.53125 -0.378906 0.53125 -0.421875 L 0.53125 -3.828125 C 0.53125 -3.847656 0.523438 -3.878906 0.515625 -3.921875 C 0.503906 -3.960938 0.488281 -4 0.46875 -4.03125 C 0.457031 -4.0625 0.4375 -4.085938 0.40625 -4.109375 C 0.375 -4.140625 0.335938 -4.15625 0.296875 -4.15625 L 0.265625 -4.15625 L 0.265625 -4.21875 L 0.90625 -4.21875 L 3.234375 -0.5625 L 3.234375 -3.828125 C 3.234375 -3.847656 3.226562 -3.878906 3.21875 -3.921875 C 3.207031 -3.960938 3.191406 -4 3.171875 -4.03125 C 3.148438 -4.0625 3.125 -4.085938 3.09375 -4.109375 C 3.070312 -4.140625 3.046875 -4.15625 3.015625 -4.15625 L 2.984375 -4.15625 L 2.984375 -4.21875 L 3.703125 -4.21875 L 3.703125 -4.15625 L 3.671875 -4.15625 C 3.628906 -4.15625 3.597656 -4.140625 3.578125 -4.109375 C 3.554688 -4.085938 3.535156 -4.0625 3.515625 -4.03125 C 3.492188 -4 3.476562 -3.960938 3.46875 -3.921875 C 3.457031 -3.878906 3.453125 -3.847656 3.453125 -3.828125 L 3.453125 0 L 3.0625 0 L 0.75 -3.671875 L 0.75 -0.421875 C 0.75 -0.378906 0.75 -0.335938 0.75 -0.296875 C 0.757812 -0.265625 0.773438 -0.226562 0.796875 -0.1875 C 0.816406 -0.15625 0.835938 -0.125 0.859375 -0.09375 C 0.890625 -0.0703125 0.921875 -0.0625 0.953125 -0.0625 Z M 0.953125 -0.0625 "/></g></g></g><g fill="#000000" fill-opacity="1"><g transform="translate(90.723652, 107.152854)"><g><path d="M 2.84375 -0.0625 L 2.875 -0.0625 C 2.90625 -0.0625 2.929688 -0.0703125 2.953125 -0.09375 C 2.972656 -0.125 2.992188 -0.15625 3.015625 -0.1875 C 3.035156 -0.226562 3.050781 -0.265625 3.0625 -0.296875 C 3.070312 -0.335938 3.078125 -0.378906 3.078125 -0.421875 L 3.078125 -2.15625 L 1.03125 -2.15625 L 1.03125 -0.421875 C 1.03125 -0.378906 1.03125 -0.335938 1.03125 -0.296875 C 1.039062 -0.265625 1.054688 -0.226562 1.078125 -0.1875 C 1.097656 -0.15625 1.117188 -0.125 1.140625 -0.09375 C 1.160156 -0.0703125 1.191406 -0.0625 1.234375 -0.0625 L 1.265625 -0.0625 L 1.265625 0 L 0.359375 0 L 0.359375 -0.0625 L 0.390625 -0.0625 C 0.421875 -0.0625 0.445312 -0.0703125 0.46875 -0.09375 C 0.5 -0.125 0.523438 -0.15625 0.546875 -0.1875 C 0.566406 -0.226562 0.578125 -0.265625 0.578125 -0.296875 C 0.585938 -0.335938 0.59375 -0.378906 0.59375 -0.421875 L 0.59375 -3.828125 C 0.59375 -3.847656 0.585938 -3.878906 0.578125 -3.921875 C 0.578125 -3.960938 0.566406 -4 0.546875 -4.03125 C 0.535156 -4.0625 0.515625 -4.085938 0.484375 -4.109375 C 0.460938 -4.140625 0.429688 -4.15625 0.390625 -4.15625 L 0.359375 -4.15625 L 0.359375 -4.21875 L 1.265625 -4.21875 L 1.265625 -4.15625 L 1.234375 -4.15625 C 1.191406 -4.15625 1.15625 -4.140625 1.125 -4.109375 C 1.101562 -4.085938 1.082031 -4.0625 1.0625 -4.03125 C 1.050781 -4 1.039062 -3.960938 1.03125 -3.921875 C 1.03125 -3.878906 1.03125 -3.847656 1.03125 -3.828125 L 1.03125 -2.375 L 3.078125 -2.375 L 3.078125 -3.828125 C 3.078125 -3.847656 3.070312 -3.878906 3.0625 -3.921875 C 3.050781 -3.960938 3.035156 -4 3.015625 -4.03125 C 3.003906 -4.0625 2.984375 -4.085938 2.953125 -4.109375 C 2.929688 -4.140625 2.90625 -4.15625 2.875 -4.15625 L 2.84375 -4.15625 L 2.84375 -4.21875 L 3.734375 -4.21875 L 3.734375 -4.15625 L 3.703125 -4.15625 C 3.671875 -4.15625 3.640625 -4.140625 3.609375 -4.109375 C 3.585938 -4.085938 3.566406 -4.0625 3.546875 -4.03125 C 3.535156 -4 3.523438 -3.960938 3.515625 -3.921875 C 3.503906 -3.878906 3.5 -3.847656 3.5 -3.828125 L 3.5 -0.421875 C 3.5 -0.378906 3.503906 -0.335938 3.515625 -0.296875 C 3.523438 -0.265625 3.535156 -0.226562 3.546875 -0.1875 C 3.566406 -0.15625 3.585938 -0.125 3.609375 -0.09375 C 3.640625 -0.0703125 3.671875 -0.0625 3.703125 -0.0625 L 3.734375 -0.0625 L 3.734375 0 L 2.84375 0 Z M 2.84375 -0.0625 "/></g></g></g><g fill="#000000" fill-opacity="1"><g transform="translate(96.964807, 107.152854)"><g><path d="M 2.734375 -0.0625 L 2.765625 -0.0625 C 2.867188 -0.0625 2.921875 -0.109375 2.921875 -0.203125 C 2.921875 -0.234375 2.910156 -0.269531 2.890625 -0.3125 L 2.3125 -1.859375 L 1.203125 -1.859375 L 0.640625 -0.34375 C 0.628906 -0.300781 0.625 -0.269531 0.625 -0.25 C 0.625 -0.1875 0.640625 -0.140625 0.671875 -0.109375 C 0.703125 -0.078125 0.734375 -0.0625 0.765625 -0.0625 L 0.796875 -0.0625 L 0.796875 0 L 0.09375 0 L 0.09375 -0.0625 L 0.125 -0.0625 C 0.175781 -0.0625 0.226562 -0.09375 0.28125 -0.15625 C 0.332031 -0.226562 0.378906 -0.304688 0.421875 -0.390625 L 1.875 -4.296875 L 3.3125 -0.4375 C 3.34375 -0.351562 3.382812 -0.269531 3.4375 -0.1875 C 3.488281 -0.101562 3.554688 -0.0625 3.640625 -0.0625 L 3.671875 -0.0625 L 3.671875 0 L 2.734375 0 Z M 1.265625 -2.078125 L 2.25 -2.078125 L 1.75 -3.421875 Z M 1.265625 -2.078125 "/></g></g></g><g fill="#000000" fill-opacity="1"><g transform="translate(103.001543, 107.152854)"><g><path d="M 1.15625 -0.0625 L 1.1875 -0.0625 L 1.1875 0 L 0.28125 0 L 0.28125 -0.0625 L 0.3125 -0.0625 C 0.34375 -0.0625 0.367188 -0.0703125 0.390625 -0.09375 C 0.421875 -0.125 0.445312 -0.15625 0.46875 -0.1875 C 0.488281 -0.226562 0.503906 -0.265625 0.515625 -0.296875 C 0.523438 -0.335938 0.53125 -0.378906 0.53125 -0.421875 L 0.53125 -3.828125 C 0.53125 -3.847656 0.523438 -3.878906 0.515625 -3.921875 C 0.503906 -3.960938 0.488281 -4 0.46875 -4.03125 C 0.445312 -4.0625 0.421875 -4.085938 0.390625 -4.109375 C 0.367188 -4.140625 0.34375 -4.15625 0.3125 -4.15625 L 0.28125 -4.15625 L 0.28125 -4.21875 L 1.40625 -4.21875 C 1.820312 -4.21875 2.144531 -4.132812 2.375 -3.96875 C 2.613281 -3.800781 2.734375 -3.554688 2.734375 -3.234375 C 2.734375 -3.066406 2.707031 -2.921875 2.65625 -2.796875 C 2.601562 -2.679688 2.53125 -2.578125 2.4375 -2.484375 C 2.351562 -2.398438 2.25 -2.332031 2.125 -2.28125 C 2 -2.226562 1.867188 -2.191406 1.734375 -2.171875 L 2.203125 -1.46875 C 2.304688 -1.289062 2.414062 -1.117188 2.53125 -0.953125 C 2.644531 -0.796875 2.757812 -0.628906 2.875 -0.453125 C 2.90625 -0.410156 2.9375 -0.363281 2.96875 -0.3125 C 3.007812 -0.269531 3.050781 -0.226562 3.09375 -0.1875 C 3.132812 -0.15625 3.175781 -0.125 3.21875 -0.09375 C 3.257812 -0.0703125 3.304688 -0.0625 3.359375 -0.0625 L 3.359375 0 L 3.078125 0 C 2.910156 0 2.769531 -0.0390625 2.65625 -0.125 C 2.550781 -0.207031 2.460938 -0.304688 2.390625 -0.421875 C 2.203125 -0.703125 2.007812 -0.984375 1.8125 -1.265625 C 1.625 -1.554688 1.4375 -1.84375 1.25 -2.125 C 1.207031 -2.132812 1.15625 -2.140625 1.09375 -2.140625 C 1.039062 -2.148438 0.992188 -2.160156 0.953125 -2.171875 L 0.953125 -0.421875 C 0.953125 -0.378906 0.957031 -0.335938 0.96875 -0.296875 C 0.976562 -0.265625 0.988281 -0.226562 1 -0.1875 C 1.019531 -0.15625 1.039062 -0.125 1.0625 -0.09375 C 1.09375 -0.0703125 1.125 -0.0625 1.15625 -0.0625 Z M 0.953125 -4 L 0.953125 -2.375 L 0.984375 -2.375 C 1.015625 -2.375 1.066406 -2.367188 1.140625 -2.359375 C 1.222656 -2.359375 1.316406 -2.359375 1.421875 -2.359375 C 1.515625 -2.359375 1.609375 -2.375 1.703125 -2.40625 C 1.804688 -2.4375 1.898438 -2.484375 1.984375 -2.546875 C 2.078125 -2.609375 2.148438 -2.691406 2.203125 -2.796875 C 2.265625 -2.910156 2.296875 -3.046875 2.296875 -3.203125 C 2.296875 -3.367188 2.265625 -3.5 2.203125 -3.59375 C 2.140625 -3.695312 2.050781 -3.78125 1.9375 -3.84375 C 1.832031 -3.90625 1.703125 -3.945312 1.546875 -3.96875 C 1.398438 -3.988281 1.234375 -4 1.046875 -4 Z M 0.953125 -4 "/></g></g></g><g fill="#000000" fill-opacity="1"><g transform="translate(108.718873, 107.152854)"><g><path d="M 0.3125 -4.21875 L 1.234375 -4.21875 L 1.234375 -4.15625 L 1.1875 -4.15625 C 1.164062 -4.15625 1.140625 -4.140625 1.109375 -4.109375 C 1.085938 -4.085938 1.066406 -4.0625 1.046875 -4.03125 C 1.023438 -4 1.007812 -3.960938 1 -3.921875 C 0.988281 -3.878906 0.984375 -3.847656 0.984375 -3.828125 L 0.984375 -0.421875 C 0.984375 -0.378906 0.988281 -0.335938 1 -0.296875 C 1.007812 -0.265625 1.023438 -0.226562 1.046875 -0.1875 C 1.066406 -0.15625 1.085938 -0.125 1.109375 -0.09375 C 1.128906 -0.0703125 1.15625 -0.0625 1.1875 -0.0625 L 1.234375 -0.0625 L 1.234375 0 L 0.3125 0 L 0.3125 -0.0625 L 0.34375 -0.0625 C 0.375 -0.0625 0.398438 -0.0703125 0.421875 -0.09375 C 0.453125 -0.125 0.476562 -0.15625 0.5 -0.1875 C 0.519531 -0.226562 0.535156 -0.265625 0.546875 -0.296875 C 0.554688 -0.335938 0.5625 -0.378906 0.5625 -0.421875 L 0.5625 -3.828125 C 0.5625 -3.847656 0.554688 -3.878906 0.546875 -3.921875 C 0.535156 -3.960938 0.519531 -4 0.5 -4.03125 C 0.476562 -4.0625 0.453125 -4.085938 0.421875 -4.109375 C 0.398438 -4.140625 0.375 -4.15625 0.34375 -4.15625 L 0.3125 -4.15625 Z M 0.3125 -4.21875 "/></g></g></g><g fill="#000000" fill-opacity="1"><g transform="translate(112.538938, 107.152854)"><g><path d="M 2.734375 -0.0625 L 2.765625 -0.0625 C 2.867188 -0.0625 2.921875 -0.109375 2.921875 -0.203125 C 2.921875 -0.234375 2.910156 -0.269531 2.890625 -0.3125 L 2.3125 -1.859375 L 1.203125 -1.859375 L 0.640625 -0.34375 C 0.628906 -0.300781 0.625 -0.269531 0.625 -0.25 C 0.625 -0.1875 0.640625 -0.140625 0.671875 -0.109375 C 0.703125 -0.078125 0.734375 -0.0625 0.765625 -0.0625 L 0.796875 -0.0625 L 0.796875 0 L 0.09375 0 L 0.09375 -0.0625 L 0.125 -0.0625 C 0.175781 -0.0625 0.226562 -0.09375 0.28125 -0.15625 C 0.332031 -0.226562 0.378906 -0.304688 0.421875 -0.390625 L 1.875 -4.296875 L 3.3125 -0.4375 C 3.34375 -0.351562 3.382812 -0.269531 3.4375 -0.1875 C 3.488281 -0.101562 3.554688 -0.0625 3.640625 -0.0625 L 3.671875 -0.0625 L 3.671875 0 L 2.734375 0 Z M 1.265625 -2.078125 L 2.25 -2.078125 L 1.75 -3.421875 Z M 1.265625 -2.078125 "/></g></g></g></svg>