<svg xmlns="http://www.w3.org/2000/svg" xmlns:xlink="http://www.w3.org/1999/xlink" width="40" zoomAndPan="magnify" viewBox="0 0 30 30.000001" height="40" preserveAspectRatio="xMidYMid meet" version="1.0"><defs><g/><clipPath id="fe099c7c97"><path d="M 0.484375 0 L 29.515625 0 L 29.515625 19 L 0.484375 19 Z M 0.484375 0 " clip-rule="nonzero"/></clipPath></defs><g clip-path="url(#fe099c7c97)"><g fill="#000000" fill-opacity="1"><g transform="translate(0.48387, 14.42015)"><g><path d="M 32.65625 -6.390625 C 32.414062 -6.367188 32.175781 -6.347656 31.9375 -6.328125 C 31.71875 -6.304688 31.492188 -6.285156 31.265625 -6.265625 C 29.660156 -6.097656 28.0625 -5.878906 26.46875 -5.609375 C 24.632812 -5.316406 22.804688 -4.972656 20.984375 -4.578125 C 20.660156 -4.503906 20.363281 -4.375 20.09375 -4.1875 C 17.914062 -2.738281 15.671875 -1.429688 13.359375 -0.265625 C 11.046875 0.890625 8.671875 1.921875 6.234375 2.828125 C 5.171875 3.242188 4.085938 3.597656 2.984375 3.890625 C 2.484375 4.015625 1.96875 4.097656 1.4375 4.140625 C 1.363281 4.140625 1.296875 4.140625 1.234375 4.140625 C 0.992188 4.148438 0.765625 4.113281 0.546875 4.03125 C 0.210938 3.882812 0.113281 3.640625 0.25 3.296875 C 0.351562 3.054688 0.503906 2.84375 0.703125 2.65625 C 1.097656 2.269531 1.535156 1.9375 2.015625 1.65625 C 3.191406 0.96875 4.414062 0.359375 5.6875 -0.171875 C 6.925781 -0.710938 8.191406 -1.207031 9.484375 -1.65625 C 9.515625 -1.664062 9.546875 -1.675781 9.578125 -1.6875 C 9.617188 -1.707031 9.664062 -1.726562 9.71875 -1.75 C 9.894531 -1.800781 10.015625 -1.925781 10.078125 -2.125 C 10.191406 -2.40625 10.3125 -2.691406 10.4375 -2.984375 C 10.445312 -3.035156 10.460938 -3.085938 10.484375 -3.140625 C 10.753906 -3.785156 11.023438 -4.441406 11.296875 -5.109375 C 11.796875 -6.347656 12.300781 -7.59375 12.8125 -8.84375 C 13.144531 -9.625 13.410156 -10.429688 13.609375 -11.265625 C 13.617188 -11.335938 13.644531 -11.414062 13.6875 -11.5 C 13.75 -11.582031 13.832031 -11.613281 13.9375 -11.59375 C 13.976562 -11.601562 14.023438 -11.601562 14.078125 -11.59375 C 14.117188 -11.582031 14.148438 -11.5625 14.171875 -11.53125 C 14.203125 -11.507812 14.21875 -11.476562 14.21875 -11.4375 C 14.226562 -11.3125 14.222656 -11.1875 14.203125 -11.0625 C 14.046875 -10.332031 13.816406 -9.617188 13.515625 -8.921875 C 13.003906 -7.671875 12.488281 -6.421875 11.96875 -5.171875 C 11.757812 -4.660156 11.546875 -4.144531 11.328125 -3.625 C 11.285156 -3.53125 11.242188 -3.429688 11.203125 -3.328125 C 11.078125 -3.015625 10.953125 -2.703125 10.828125 -2.390625 C 10.816406 -2.378906 10.8125 -2.367188 10.8125 -2.359375 C 10.789062 -2.328125 10.773438 -2.296875 10.765625 -2.265625 C 10.765625 -2.234375 10.785156 -2.203125 10.828125 -2.171875 C 10.828125 -2.160156 10.835938 -2.15625 10.859375 -2.15625 C 10.867188 -2.15625 10.882812 -2.160156 10.90625 -2.171875 C 10.914062 -2.171875 10.921875 -2.171875 10.921875 -2.171875 C 11.253906 -2.273438 11.578125 -2.378906 11.890625 -2.484375 C 12.460938 -2.671875 13.03125 -2.851562 13.59375 -3.03125 C 15.59375 -3.644531 17.609375 -4.1875 19.640625 -4.65625 C 19.878906 -4.707031 20.097656 -4.800781 20.296875 -4.9375 C 20.878906 -5.34375 21.445312 -5.757812 22 -6.1875 C 22.5625 -6.625 23.097656 -7.082031 23.609375 -7.5625 C 24.171875 -8.070312 24.679688 -8.628906 25.140625 -9.234375 C 25.410156 -9.585938 25.613281 -9.976562 25.75 -10.40625 C 25.945312 -11.070312 25.828125 -11.65625 25.390625 -12.15625 C 25.234375 -12.34375 25.054688 -12.5 24.859375 -12.625 C 24.660156 -12.757812 24.453125 -12.875 24.234375 -12.96875 C 23.472656 -13.300781 22.679688 -13.507812 21.859375 -13.59375 C 21.148438 -13.6875 20.4375 -13.734375 19.71875 -13.734375 C 19.0625 -13.734375 18.410156 -13.707031 17.765625 -13.65625 C 16.085938 -13.519531 14.429688 -13.265625 12.796875 -12.890625 C 11.679688 -12.648438 10.585938 -12.347656 9.515625 -11.984375 C 8.441406 -11.617188 7.398438 -11.164062 6.390625 -10.625 C 6.015625 -10.425781 5.648438 -10.210938 5.296875 -9.984375 C 4.953125 -9.753906 4.617188 -9.503906 4.296875 -9.234375 C 4.054688 -9.015625 3.832031 -8.78125 3.625 -8.53125 C 3.46875 -8.363281 3.351562 -8.171875 3.28125 -7.953125 C 3.175781 -7.609375 3.253906 -7.316406 3.515625 -7.078125 C 3.671875 -6.921875 3.851562 -6.804688 4.0625 -6.734375 C 4.414062 -6.585938 4.78125 -6.5 5.15625 -6.46875 C 5.363281 -6.457031 5.570312 -6.445312 5.78125 -6.4375 C 6.050781 -6.425781 6.328125 -6.410156 6.609375 -6.390625 C 6.828125 -6.378906 7.046875 -6.359375 7.265625 -6.328125 C 7.296875 -6.328125 7.320312 -6.316406 7.34375 -6.296875 C 7.363281 -6.273438 7.378906 -6.25 7.390625 -6.21875 C 7.390625 -6.164062 7.375 -6.128906 7.34375 -6.109375 C 7.3125 -6.085938 7.273438 -6.082031 7.234375 -6.09375 L 7.1875 -6.09375 C 7.164062 -6.09375 7.144531 -6.09375 7.125 -6.09375 C 6.914062 -6.101562 6.71875 -6.109375 6.53125 -6.109375 C 6.46875 -6.109375 6.40625 -6.109375 6.34375 -6.109375 C 6.238281 -6.109375 6.132812 -6.109375 6.03125 -6.109375 C 5.738281 -6.109375 5.453125 -6.113281 5.171875 -6.125 C 4.898438 -6.132812 4.628906 -6.171875 4.359375 -6.234375 C 4.046875 -6.296875 3.738281 -6.398438 3.4375 -6.546875 C 3.28125 -6.617188 3.132812 -6.710938 3 -6.828125 C 2.582031 -7.171875 2.476562 -7.601562 2.6875 -8.125 C 2.832031 -8.457031 3.039062 -8.753906 3.3125 -9.015625 C 3.664062 -9.378906 4.050781 -9.710938 4.46875 -10.015625 C 5.625 -10.796875 6.851562 -11.429688 8.15625 -11.921875 C 9.195312 -12.328125 10.253906 -12.664062 11.328125 -12.9375 C 12.410156 -13.207031 13.503906 -13.4375 14.609375 -13.625 C 16.304688 -13.914062 18.019531 -14.066406 19.75 -14.078125 C 19.800781 -14.078125 19.851562 -14.078125 19.90625 -14.078125 C 20.5625 -14.078125 21.210938 -14.039062 21.859375 -13.96875 C 22.503906 -13.90625 23.144531 -13.785156 23.78125 -13.609375 C 24.300781 -13.460938 24.796875 -13.253906 25.265625 -12.984375 C 25.503906 -12.835938 25.71875 -12.664062 25.90625 -12.46875 C 26.550781 -11.800781 26.707031 -11.019531 26.375 -10.125 C 26.21875 -9.738281 26.007812 -9.375 25.75 -9.03125 C 25.257812 -8.382812 24.71875 -7.796875 24.125 -7.265625 C 23.394531 -6.609375 22.632812 -5.988281 21.84375 -5.40625 C 21.820312 -5.382812 21.796875 -5.367188 21.765625 -5.359375 C 21.722656 -5.328125 21.679688 -5.289062 21.640625 -5.25 C 21.597656 -5.21875 21.566406 -5.175781 21.546875 -5.125 C 21.578125 -5.09375 21.601562 -5.078125 21.625 -5.078125 C 21.65625 -5.085938 21.691406 -5.097656 21.734375 -5.109375 C 21.765625 -5.117188 21.796875 -5.128906 21.828125 -5.140625 C 23.878906 -5.554688 25.9375 -5.898438 28 -6.171875 C 28.988281 -6.296875 29.972656 -6.410156 30.953125 -6.515625 C 31.296875 -6.546875 31.632812 -6.578125 31.96875 -6.609375 C 32.082031 -6.628906 32.203125 -6.640625 32.328125 -6.640625 C 32.453125 -6.640625 32.570312 -6.628906 32.6875 -6.609375 C 32.695312 -6.597656 32.707031 -6.582031 32.71875 -6.5625 C 32.738281 -6.550781 32.75 -6.535156 32.75 -6.515625 C 32.757812 -6.472656 32.753906 -6.441406 32.734375 -6.421875 C 32.710938 -6.398438 32.6875 -6.390625 32.65625 -6.390625 Z M 9.046875 1.21875 C 9.097656 1.1875 9.144531 1.15625 9.1875 1.125 C 9.238281 1.09375 9.269531 1.046875 9.28125 0.984375 C 9.269531 0.984375 9.257812 0.984375 9.25 0.984375 C 9.113281 0.992188 9.023438 0.972656 8.984375 0.921875 C 8.953125 0.878906 8.953125 0.800781 8.984375 0.6875 C 9.003906 0.613281 9.03125 0.539062 9.0625 0.46875 C 9.070312 0.445312 9.082031 0.425781 9.09375 0.40625 C 9.144531 0.269531 9.195312 0.132812 9.25 0 C 9.363281 -0.289062 9.476562 -0.59375 9.59375 -0.90625 C 9.601562 -0.914062 9.613281 -0.929688 9.625 -0.953125 C 9.644531 -1.003906 9.65625 -1.050781 9.65625 -1.09375 C 9.664062 -1.132812 9.660156 -1.179688 9.640625 -1.234375 C 9.628906 -1.234375 9.617188 -1.234375 9.609375 -1.234375 C 9.578125 -1.222656 9.546875 -1.210938 9.515625 -1.203125 C 9.503906 -1.191406 9.488281 -1.1875 9.46875 -1.1875 C 8.59375 -0.863281 7.722656 -0.523438 6.859375 -0.171875 C 5.992188 0.179688 5.144531 0.566406 4.3125 0.984375 C 3.625 1.304688 2.960938 1.671875 2.328125 2.078125 C 1.960938 2.296875 1.628906 2.554688 1.328125 2.859375 C 1.160156 3.015625 1.035156 3.203125 0.953125 3.421875 C 0.921875 3.484375 0.921875 3.546875 0.953125 3.609375 C 0.984375 3.671875 1.035156 3.710938 1.109375 3.734375 C 1.203125 3.765625 1.296875 3.78125 1.390625 3.78125 C 1.492188 3.78125 1.597656 3.769531 1.703125 3.75 C 2.378906 3.632812 3.046875 3.46875 3.703125 3.25 C 5.128906 2.789062 6.539062 2.269531 7.9375 1.6875 C 8.300781 1.539062 8.671875 1.382812 9.046875 1.21875 Z M 18.671875 -3.859375 C 18.671875 -3.867188 18.679688 -3.878906 18.703125 -3.890625 C 18.722656 -3.898438 18.738281 -3.914062 18.75 -3.9375 C 18.769531 -3.957031 18.769531 -3.988281 18.75 -4.03125 C 18.71875 -4.03125 18.679688 -4.019531 18.640625 -4 C 18.398438 -3.9375 18.164062 -3.878906 17.9375 -3.828125 C 17.3125 -3.660156 16.6875 -3.488281 16.0625 -3.3125 C 14.320312 -2.832031 12.601562 -2.296875 10.90625 -1.703125 C 10.75 -1.648438 10.617188 -1.582031 10.515625 -1.5 C 10.421875 -1.414062 10.351562 -1.300781 10.3125 -1.15625 C 10.289062 -1.070312 10.257812 -0.992188 10.21875 -0.921875 C 10.195312 -0.890625 10.179688 -0.851562 10.171875 -0.8125 C 10.128906 -0.707031 10.0625 -0.566406 9.96875 -0.390625 C 9.863281 -0.191406 9.757812 0.0078125 9.65625 0.21875 C 9.5625 0.425781 9.492188 0.601562 9.453125 0.75 C 9.421875 0.894531 9.441406 0.976562 9.515625 1 C 9.609375 0.976562 9.695312 0.941406 9.78125 0.890625 C 9.820312 0.867188 9.863281 0.847656 9.90625 0.828125 C 11.789062 0.00390625 13.628906 -0.910156 15.421875 -1.921875 C 16.140625 -2.328125 16.847656 -2.742188 17.546875 -3.171875 C 17.847656 -3.359375 18.15625 -3.539062 18.46875 -3.71875 C 18.46875 -3.726562 18.472656 -3.734375 18.484375 -3.734375 C 18.546875 -3.765625 18.609375 -3.804688 18.671875 -3.859375 Z M 18.671875 -3.859375 "/></g></g></g></g><g fill="#000000" fill-opacity="1"><g transform="translate(1.935483, 26.342033)"><g><path d="M 22.671875 -9.46875 C 22.628906 -9.457031 22.582031 -9.457031 22.53125 -9.46875 C 22.476562 -9.476562 22.425781 -9.5 22.375 -9.53125 C 22.320312 -9.582031 22.300781 -9.628906 22.3125 -9.671875 C 22.320312 -9.722656 22.34375 -9.765625 22.375 -9.796875 C 22.800781 -10.484375 23.171875 -11.203125 23.484375 -11.953125 C 23.679688 -12.410156 23.851562 -12.890625 24 -13.390625 C 24.09375 -13.691406 24.101562 -14.015625 24.03125 -14.359375 C 23.945312 -14.734375 23.722656 -15 23.359375 -15.15625 C 23.078125 -15.257812 22.785156 -15.316406 22.484375 -15.328125 C 22.429688 -15.328125 22.378906 -15.328125 22.328125 -15.328125 C 21.703125 -15.296875 21.097656 -15.207031 20.515625 -15.0625 C 19.492188 -14.8125 18.503906 -14.5 17.546875 -14.125 C 16.597656 -13.757812 15.671875 -13.363281 14.765625 -12.9375 C 10.785156 -11 7.21875 -8.550781 4.0625 -5.59375 C 3.269531 -4.875 2.578125 -4.070312 1.984375 -3.1875 C 1.773438 -2.875 1.59375 -2.546875 1.4375 -2.203125 C 1.34375 -2.003906 1.28125 -1.796875 1.25 -1.578125 C 1.113281 -0.859375 1.425781 -0.316406 2.1875 0.046875 C 2.820312 0.335938 3.472656 0.503906 4.140625 0.546875 C 4.648438 0.585938 5.15625 0.609375 5.65625 0.609375 C 5.882812 0.609375 6.101562 0.597656 6.3125 0.578125 C 9.4375 0.546875 12.382812 0.140625 15.15625 -0.640625 C 15.195312 -0.648438 15.242188 -0.660156 15.296875 -0.671875 C 15.484375 -0.734375 15.675781 -0.785156 15.875 -0.828125 C 15.9375 -0.835938 16.023438 -0.84375 16.140625 -0.84375 C 16.265625 -0.851562 16.382812 -0.847656 16.5 -0.828125 C 16.613281 -0.804688 16.679688 -0.753906 16.703125 -0.671875 C 16.710938 -0.628906 16.707031 -0.597656 16.6875 -0.578125 C 16.664062 -0.554688 16.632812 -0.539062 16.59375 -0.53125 C 16.414062 -0.488281 16.242188 -0.441406 16.078125 -0.390625 C 15.578125 -0.253906 15.078125 -0.125 14.578125 0 C 11.773438 0.71875 8.859375 1.066406 5.828125 1.046875 C 5.203125 1.046875 4.578125 1.035156 3.953125 1.015625 C 3.253906 0.984375 2.550781 0.832031 1.84375 0.5625 C 0.445312 0.0195312 -0.0390625 -0.875 0.375 -2.125 C 0.539062 -2.625 0.78125 -3.082031 1.09375 -3.5 C 1.53125 -4.125 2.007812 -4.703125 2.53125 -5.234375 C 3.0625 -5.773438 3.613281 -6.296875 4.1875 -6.796875 C 6.738281 -9.035156 9.546875 -10.960938 12.609375 -12.578125 C 13.546875 -13.066406 14.5 -13.523438 15.46875 -13.953125 C 16.4375 -14.378906 17.4375 -14.753906 18.46875 -15.078125 C 19.34375 -15.347656 20.234375 -15.554688 21.140625 -15.703125 C 21.515625 -15.753906 21.882812 -15.78125 22.25 -15.78125 C 22.488281 -15.78125 22.726562 -15.769531 22.96875 -15.75 C 23.25 -15.726562 23.535156 -15.671875 23.828125 -15.578125 C 24.597656 -15.304688 24.988281 -14.796875 25 -14.046875 C 25 -13.722656 24.957031 -13.410156 24.875 -13.109375 C 24.6875 -12.515625 24.457031 -11.945312 24.1875 -11.40625 C 23.914062 -10.863281 23.625 -10.332031 23.3125 -9.8125 C 23.21875 -9.632812 23.070312 -9.519531 22.875 -9.46875 C 22.8125 -9.457031 22.753906 -9.457031 22.703125 -9.46875 Z M 22.671875 -9.46875 "/></g></g></g></svg>